<svg xmlns="http://www.w3.org/2000/svg" xmlns:xlink="http://www.w3.org/1999/xlink" width="515" height="320" fill="none"><style><![CDATA[.B{fill:#2c3e50}.C{fill:#718093}.D{fill:#62839b}.E{fill:#fff}.F{fill-rule:evenodd}.G{fill:#e8ebee}]]></style><g clip-path="url(#B)"><g filter="url(#A)"><path d="M53 31.017C53 29.903 53.9 29 55.007 29h404.986c1.11 0 2.007.903 2.007 2.017v252.966c0 1.114-.898 2.017-2.007 2.017H55.007C53.9 286 53 285.097 53 283.983V31.017z" fill="#fefefe"/><path d="M71.964 57.338h2.016v-7.193h2.44v-1.69h-6.894v1.69h2.44v7.194z" class="D"/><path d="M77.64 57.338h2.003V50.58H77.64v6.758zm.995-7.752c.68 0 1.158-.436 1.158-1.05s-.477-1.035-1.158-1.035c-.668 0-1.158.422-1.158 1.035s.5 1.05 1.158 1.05z" class="D"/><path d="M81.406 57.338h2.003v-4.564c.422-.436.817-.654 1.144-.654.572 0 .83.3.83 1.28v3.937h2.003v-4.564c.436-.436.817-.654 1.158-.654.572 0 .83.3.83 1.28v3.937h2.003v-4.196c0-1.69-.654-2.725-2.112-2.725-.9 0-1.526.518-2.125 1.13-.34-.722-.913-1.13-1.867-1.13-.885 0-1.485.477-2.044 1.035h-.054l-.136-.872h-1.635v6.758z" class="D"/><path d="M96.112 57.502c.804 0 1.703-.286 2.398-.763l-.668-1.212c-.49.3-.954.45-1.458.45-.9 0-1.58-.45-1.757-1.43h4.046c.04-.163.082-.53.082-.886 0-1.84-.954-3.242-2.875-3.242-1.62 0-3.188 1.35-3.188 3.542 0 2.234 1.485 3.542 3.42 3.542zm-1.5-4.278c.136-.858.68-1.28 1.308-1.28.804 0 1.13.53 1.13 1.28h-2.44z" class="D"/><path d="M104.57 57.502c.763 0 1.4-.354 1.962-.858h.055l.136.695h1.635v-3.87c0-2.07-.954-3.052-2.684-3.052-1.063 0-2.03.368-2.888.886l.722 1.322c.654-.38 1.212-.613 1.784-.613.736 0 1.022.38 1.063.98-2.67.273-3.8 1.05-3.8 2.466 0 1.144.777 2.044 2.016 2.044zm.682-1.553c-.477 0-.777-.204-.777-.64 0-.518.463-.926 1.88-1.117v1.185c-.354.354-.654.572-1.103.572z" class="D"/><path d="M110.05 57.338h2.003v-4.564c.436-.422.75-.654 1.253-.654.572 0 .83.3.83 1.28v3.937h2.003v-4.196c0-1.69-.627-2.725-2.098-2.725-.913 0-1.594.477-2.167 1.022h-.054l-.136-.858h-1.635v6.758z" class="D"/><path d="M120.26 57.502c.654 0 1.32-.354 1.798-.83h.055l.136.668h1.635v-9.55h-2.003V50.1l.082 1.035c-.463-.436-.913-.708-1.662-.708-1.43 0-2.807 1.335-2.807 3.542s1.1 3.542 2.766 3.542zm.518-1.635c-.777 0-1.227-.6-1.227-1.935 0-1.28.573-1.88 1.213-1.88a1.6 1.6 0 0 1 1.117.436v2.766c-.327.45-.667.613-1.103.613z" class="D"/><path d="M130.633 52.842l.694-2.86h.055l.926 3.678h-1.893l.218-.817zm-3.216 4.496h2.044l.545-2.112h2.71l.545 2.112h2.125l-2.78-8.883h-2.41l-2.78 8.883z" class="D"/><path d="M138.557 57.502c.654 0 1.145-.136 1.5-.245l-.313-1.458c-.178.068-.423.136-.64.136-.53 0-.872-.313-.872-1.076v-2.71h1.622V50.58h-1.622v-1.798h-1.662l-.23 1.798-1.036.082v1.485h.927v2.74c0 1.567.653 2.616 2.33 2.616z" class="D"/><path d="M143.507 57.502c.654 0 1.144-.136 1.498-.245l-.313-1.458c-.177.068-.422.136-.64.136-.532 0-.872-.313-.872-1.076v-2.71h1.62V50.58h-1.62v-1.798h-1.663l-.23 1.798-1.036.082v1.485h.927v2.74c0 1.567.654 2.616 2.33 2.616z" class="D"/><path d="M148.905 57.502c.804 0 1.703-.286 2.398-.763l-.668-1.212c-.5.3-.954.45-1.458.45-.9 0-1.58-.45-1.757-1.43h4.046c.04-.163.082-.53.082-.886 0-1.84-.954-3.242-2.875-3.242-1.62 0-3.188 1.35-3.188 3.542 0 2.234 1.485 3.542 3.42 3.542zm-1.5-4.278c.136-.858.68-1.28 1.308-1.28.804 0 1.13.53 1.13 1.28h-2.44z" class="D"/><path d="M152.932 57.338h2.003v-4.564c.435-.422.75-.654 1.253-.654.572 0 .83.3.83 1.28v3.937h2.003v-4.196c0-1.69-.627-2.725-2.098-2.725-.913 0-1.594.477-2.167 1.022h-.054l-.136-.858h-1.635v6.758z" class="D"/><path d="M163.14 57.502c.654 0 1.32-.354 1.798-.83h.055l.136.668h1.635v-9.55h-2.003V50.1l.082 1.035c-.463-.436-.913-.708-1.662-.708-1.43 0-2.807 1.335-2.807 3.542s1.1 3.542 2.766 3.542zm.517-1.635c-.776 0-1.226-.6-1.226-1.935 0-1.28.573-1.88 1.213-1.88a1.6 1.6 0 0 1 1.117.436v2.766c-.327.45-.668.613-1.104.613z" class="D"/><path d="M170.24 57.502c.763 0 1.4-.354 1.962-.858h.055l.136.695h1.635v-3.87c0-2.07-.954-3.052-2.684-3.052-1.063 0-2.03.368-2.89.886l.723 1.322c.653-.38 1.212-.613 1.784-.613.736 0 1.022.38 1.063.98-2.67.273-3.8 1.05-3.8 2.466 0 1.144.776 2.044 2.016 2.044zm.68-1.553c-.476 0-.776-.204-.776-.64 0-.518.463-.926 1.88-1.117v1.185c-.354.354-.654.572-1.104.572z" class="D"/><path d="M175.723 57.338h2.002v-4.564c.436-.422.75-.654 1.254-.654.572 0 .83.3.83 1.28v3.937h2.003v-4.196c0-1.69-.627-2.725-2.098-2.725-.913 0-1.594.477-2.167 1.022h-.054l-.136-.858h-1.635v6.758z" class="D"/><path d="M186.462 57.502c.736 0 1.567-.218 2.234-.804l-.8-1.308c-.354.273-.776.49-1.212.49-.872 0-1.513-.75-1.513-1.92s.613-1.92 1.58-1.92c.313 0 .586.123.913.395l.94-1.294c-.504-.422-1.145-.722-1.976-.722-1.866 0-3.515 1.294-3.515 3.542s1.458 3.542 3.338 3.542z" class="D"/><path d="M192.518 57.502c.803 0 1.703-.286 2.397-.763l-.667-1.212c-.49.3-.954.45-1.458.45-.9 0-1.58-.45-1.757-1.43h4.046c.04-.163.082-.53.082-.886 0-1.84-.954-3.242-2.875-3.242-1.62 0-3.188 1.35-3.188 3.542 0 2.234 1.485 3.542 3.42 3.542zm-1.5-4.278c.136-.858.68-1.28 1.308-1.28.804 0 1.13.53 1.13 1.28h-2.44z" class="D"/><path d="M69.19 196.573c0-2.23 0-3.343.432-4.194.38-.75.987-1.357 1.733-1.74.85-.433 1.96-.433 4.18-.433h362.518c2.22 0 3.332 0 4.18.433.747.382 1.353 1 1.734 1.74.432.85.432 1.965.432 4.194v23.873c0 2.23 0 3.343-.432 4.194-.38.75-.987 1.357-1.734 1.74-.848.433-1.96.433-4.18.433H75.537c-2.22 0-3.332 0-4.18-.433-.746-.382-1.353-1-1.733-1.74-.432-.85-.432-1.965-.432-4.194v-23.873z" class="E"/><path d="M438.055 191.002H75.537l-2.54.052c-.612.05-.986.145-1.28.295-.597.305-1.082.792-1.387 1.39-.15.295-.244.67-.294 1.284-.05.624-.05 1.42-.05 2.55v23.873l.05 2.55c.05.614.145.99.294 1.284a3.18 3.18 0 0 0 1.387 1.391c.294.15.668.245 1.28.295.622.05 1.417.052 2.54.052l365.058-.052c.613-.05.986-.145 1.28-.295a3.18 3.18 0 0 0 1.387-1.391c.15-.295.244-.67.294-1.284.05-.624.052-1.422.052-2.55v-23.873l-.052-2.55c-.05-.614-.144-.99-.294-1.284-.304-.6-.8-1.086-1.387-1.39-.294-.15-.667-.245-1.28-.295-.62-.05-1.416-.052-2.54-.052zM69.623 192.38c-.432.85-.432 1.965-.432 4.194v23.873c0 2.23 0 3.343.432 4.194.38.75.987 1.357 1.733 1.74.85.433 1.96.433 4.18.433h362.518c2.22 0 3.332 0 4.18-.433.747-.382 1.353-1 1.734-1.74.432-.85.432-1.965.432-4.194v-23.873c0-2.23 0-3.343-.432-4.194-.38-.75-.987-1.357-1.734-1.74-.848-.433-1.96-.433-4.18-.433H75.537c-2.22 0-3.332 0-4.18.433-.746.382-1.353 1-1.733 1.74z" class="F G"/><path d="M146.626 213.2h.778v-3.8c0-.6-.062-1.432-.104-2.042h.042l.54 1.57 1.286 3.58h.57l1.285-3.58.54-1.57h.04l-.114 2.042v3.8h.81v-6.907h-1.047l-1.286 3.685-.467 1.443h-.04l-.487-1.443-1.307-3.685h-1.037v6.907z" class="B"/><path d="M155.238 213.317c.632 0 1.192-.337 1.67-.737h.03l.073.6h.705v-3.137c0-1.274-.52-2.106-1.753-2.106-.808 0-1.513.358-1.98.663l.332.6c.394-.273.923-.547 1.503-.547.83 0 1.037.632 1.037 1.284-2.146.243-3.1.8-3.1 1.917 0 .916.633 1.453 1.473 1.453zm.248-.695c-.497 0-.89-.242-.89-.82 0-.653.58-1.074 2.26-1.285v1.42c-.487.443-.88.685-1.37.685z" class="B"/><path d="M159.3 213.2h.85v-3.285c.342-.863.85-1.18 1.275-1.18.208 0 .322.032.488.084l.165-.758c-.165-.074-.32-.105-.54-.105-.57 0-1.088.41-1.43 1.053h-.032l-.072-.927h-.705v5.117z" class="B"/><path d="M162.895 213.2h.84v-1.347l.944-1.116 1.472 2.463h.933l-1.918-3.064 1.7-2.053h-.944l-2.146 2.696h-.03v-5.075h-.84v7.496z" class="B"/><path d="M169.89 213.317c.684 0 1.223-.242 1.66-.527l-.3-.568c-.373.242-.778.4-1.255.4-.964 0-1.617-.695-1.68-1.78h3.4a3.49 3.49 0 0 0 .031-.494c0-1.464-.726-2.4-2.012-2.4-1.15 0-2.26 1.02-2.26 2.695s1.068 2.675 2.416 2.675zm-1.586-3.096c.103-1.01.746-1.6 1.45-1.6.788 0 1.244.558 1.244 1.6h-2.695z" class="B"/><path d="M174.475 213.317c.31 0 .653-.095.933-.2l-.166-.653c-.166.064-.394.137-.57.137-.58 0-.778-.358-.778-.99v-2.843h1.358v-.706h-1.358v-1.432h-.715l-.104 1.432-.788.053v.653h.747v2.832c0 1.01.363 1.706 1.44 1.706z" class="B"/><path d="M176.392 213.2h.85v-5.117h-.85v5.117zm.435-6.17c.332 0 .59-.23.59-.558 0-.337-.26-.558-.59-.558s-.59.22-.59.558c0 .327.26.558.59.558z" class="B"/><path d="M178.943 213.2h.85v-3.706c.508-.516.86-.8 1.38-.8.664 0 .954.41.954 1.37v3.127h.85v-3.243c0-1.305-.477-2-1.534-2-.695 0-1.213.38-1.7.863h-.03l-.073-.737h-.705v5.117z" class="B"/><path d="M186.313 215.55c1.566 0 2.55-.82 2.55-1.77 0-.853-.59-1.22-1.763-1.22h-.974c-.684 0-.892-.232-.892-.558 0-.285.145-.453.322-.61.228.116.508.18.756.18 1.027 0 1.846-.684 1.846-1.78 0-.43-.176-.82-.415-1.052h1.037v-.664h-1.752c-.187-.073-.436-.126-.716-.126-1.026 0-1.897.705-1.897 1.82 0 .61.322 1.106.653 1.38v.042c-.26.18-.55.516-.55.948 0 .4.197.673.446.83v.042c-.457.316-.736.727-.736 1.16 0 .884.85 1.38 2.083 1.38zm0-4.56c-.58 0-1.067-.474-1.067-1.222s.477-1.19 1.067-1.19 1.068.442 1.068 1.19-.487 1.222-1.068 1.222zm.125 3.96c-.912 0-1.462-.348-1.462-.895 0-.295.156-.6.518-.864.218.064.457.085.654.085h.87c.653 0 1.016.158 1.016.63 0 .537-.633 1.043-1.597 1.043z" class="B"/><use xlink:href="#C" class="B"/><path d="M237.78 213.23c.633 0 1.193-.327 1.67-.716h.03l.073.593h.706v-3.047c0-1.238-.52-2.046-1.754-2.046-.81 0-1.515.348-1.982.645l.332.583c.394-.266.924-.532 1.505-.532.83 0 1.037.614 1.037 1.248-2.148.235-3.092.777-3.092 1.86 0 .9.633 1.41 1.474 1.41zm.25-.675c-.5 0-.893-.235-.893-.797 0-.635.58-1.044 2.262-1.248v1.38c-.487.43-.882.665-1.37.665z" class="B"/><path d="M241.845 213.106h.85v-3.6c.51-.502.86-.767 1.38-.767.664 0 .955.398.955 1.33v3.037h.85v-3.15c0-1.27-.478-1.944-1.536-1.944-.695 0-1.214.37-1.69.84h-.032l-.072-.716h-.706v4.97z" class="B"/><path d="M249.162 213.106h4.275v-.726h-1.92c-.342 0-.747.03-1.1.062 1.567-1.616 2.698-2.833 2.698-4.06 0-1.156-.758-1.923-1.982-1.923-.862 0-1.453.4-2.003.992l.488.48c.384-.44.86-.788 1.41-.788.84 0 1.256.532 1.256 1.28 0 1.053-1.12 2.23-3.113 4.182v.5z" class="B"/><path d="M257.06 213.106h.81v-1.8h.903v-.675h-.903v-4.05h-.954l-2.833 4.172v.553h2.978v1.8zm-2.075-2.474l1.546-2.23.54-.92h.042l-.052 1.258v1.892h-2.075z" class="B"/><path d="M259.758 214.845c.84-.348 1.36-1.033 1.36-1.912 0-.614-.27-.992-.716-.992-.342 0-.633.225-.633.593 0 .378.28.583.612.583.03 0 .073 0 .104-.01.01.543-.342.993-.934 1.248l.208.49z" class="B"/><path d="M264.14 213.106h4.275v-.726h-1.92c-.342 0-.747.03-1.1.062 1.567-1.616 2.698-2.833 2.698-4.06 0-1.156-.757-1.923-1.982-1.923-.86 0-1.453.4-2.003.992l.488.48c.384-.44.86-.788 1.41-.788.84 0 1.256.532 1.256 1.28 0 1.053-1.12 2.23-3.113 4.182v.5z" class="B"/><use xlink:href="#D" class="B"/><path d="M274.455 213.106h4.275v-.726h-1.92c-.342 0-.747.03-1.1.062 1.567-1.616 2.698-2.833 2.698-4.06 0-1.156-.758-1.923-1.982-1.923-.86 0-1.453.4-2.003.992l.488.48c.384-.44.86-.788 1.41-.788.84 0 1.256.532 1.256 1.28 0 1.053-1.12 2.23-3.113 4.182v.5z" class="B"/><use xlink:href="#E" class="B"/><path d="M334.69 213.437c1.357 0 2.22-1.258 2.22-3.552 0-2.282-.863-3.487-2.22-3.487s-2.22 1.194-2.22 3.487.863 3.552 2.22 3.552zm0-.96c-.627 0-1.09-.672-1.09-2.592s.462-2.527 1.09-2.527c.638 0 1.1.607 1.1 2.527s-.452 2.592-1.1 2.592z" class="B"/><path d="M339.97 213.437c1.325 0 2.21-.8 2.21-1.845 0-.907-.524-1.408-1.13-1.76v-.043c.42-.32.873-.885.873-1.557 0-1.098-.75-1.834-1.922-1.834-1.13 0-1.973.704-1.973 1.802 0 .715.4 1.216.905 1.59v.043c-.617.34-1.182.896-1.182 1.74 0 1.098.945 1.866 2.22 1.866zm.43-3.957c-.73-.3-1.315-.597-1.315-1.28 0-.586.4-.928.894-.928.606 0 .966.438.966 1.035 0 .426-.195.8-.545 1.173zm-.41 3.083c-.668 0-1.202-.448-1.202-1.12 0-.523.298-.96.71-1.27.884.374 1.572.64 1.572 1.376 0 .63-.452 1.014-1.08 1.014z" class="B"/><path d="M344.017 209.79c.43 0 .76-.352.76-.832s-.33-.832-.76-.832-.77.352-.77.832.34.832.77.832zm0 3.648c.43 0 .76-.352.76-.832s-.33-.832-.76-.832-.77.352-.77.832.34.832.77.832z" class="B"/><path d="M345.82 213.31h4.42v-1.045h-1.603c-.32 0-.75.043-1.1.075 1.295-1.42 2.374-2.656 2.374-3.862 0-1.258-.81-2.08-2.065-2.08-.894 0-1.5.384-2.086 1.045l.657.682c.35-.405.77-.757 1.275-.757.698 0 1.08.46 1.08 1.173 0 1.035-1.14 2.23-2.96 4.054v.714z" class="B"/><path d="M353.77 213.31h1.1v-1.75h.822v-.95h-.822v-4.085h-1.408l-2.6 4.202v.832h2.888v1.75zm-1.716-2.698l1.192-1.888.534-1.056h.042l-.052 1.408v1.536h-1.716z" class="B"/><use xlink:href="#F" class="B"/><path d="M399.203 213.31h1.194c.112-2.645.378-4.064 1.898-6.037v-.746h-4.357v1.034h3.07c-1.255 1.824-1.694 3.34-1.806 5.75z" class="B"/><path d="M404.13 209.79c.428 0 .755-.352.755-.832s-.327-.832-.755-.832-.765.352-.765.832.336.832.765.832zm0 3.648c.428 0 .755-.352.755-.832s-.327-.832-.755-.832-.765.352-.765.832.336.832.765.832z" class="B"/><path d="M406.286 213.31h3.908v-1.002h-1.275v-5.78h-.878c-.408.256-.857.426-1.5.554v.768h1.194v4.46h-1.45v1.002z" class="B"/><path d="M411.15 213.31h4.388v-1.045h-1.592c-.317 0-.745.043-1.082.075 1.286-1.42 2.357-2.656 2.357-3.862 0-1.258-.806-2.08-2.05-2.08-.888 0-1.48.384-2.07 1.045l.653.682c.347-.405.765-.757 1.265-.757.694 0 1.072.46 1.072 1.173 0 1.035-1.133 2.23-2.94 4.054v.714z" class="B"/><use xlink:href="#G" fill="#546de5" class="F"/><path d="M83.27 212.733V205h2.03c1.16 0 2.065.32 2.715.96s.975 1.598.975 2.877c0 .64-.085 1.204-.255 1.693-.162.49-.402.9-.72 1.23a2.97 2.97 0 0 1-1.137.735c-.44.165-.944.248-1.508.248h-2.1zm1.346-1.113h.592c.773 0 1.365-.225 1.775-.675.418-.458.626-1.164.626-2.12 0-.947-.21-1.638-.626-2.072s-1.01-.65-1.775-.65h-.592v5.517z" class="E"/><path d="M91.962 208.613l-.267.947h1.938l-.267-.947-.36-1.267-.325-1.29h-.046l-.325 1.303-.348 1.255zm-2.54 4.12l2.47-7.743h1.578l2.47 7.743h-1.415l-.592-2.096h-2.552l-.592 2.096h-1.37z" class="E"/><path d="M69.19 153.63c0-2.228 0-3.342.432-4.193a3.97 3.97 0 0 1 1.733-1.739c.85-.434 1.96-.434 4.18-.434h362.518c2.22 0 3.332 0 4.18.434a3.97 3.97 0 0 1 1.734 1.739c.432.85.432 1.965.432 4.193v23.874c0 2.228 0 3.342-.432 4.193a3.97 3.97 0 0 1-1.734 1.739c-.848.434-1.96.434-4.18.434H75.537c-2.22 0-3.332 0-4.18-.434a3.97 3.97 0 0 1-1.733-1.739c-.432-.85-.432-1.965-.432-4.193V153.63z" class="E"/><path d="M438.055 148.06H75.537l-2.54.05c-.612.05-.986.146-1.28.296-.597.305-1.082.792-1.387 1.39-.15.294-.244.67-.294 1.284-.05.623-.05 1.42-.05 2.548v23.874l.05 2.548c.05.614.145.99.294 1.284.304.6.8 1.086 1.387 1.39.294.15.668.245 1.28.296.622.05 1.417.05 2.54.05l365.058-.05c.613-.05.986-.146 1.28-.296.597-.305 1.083-.792 1.387-1.39.15-.295.244-.67.294-1.284.05-.623.052-1.42.052-2.548V153.63l-.052-2.548c-.05-.615-.144-1-.294-1.284-.304-.6-.8-1.086-1.387-1.39-.294-.15-.667-.245-1.28-.296-.62-.05-1.416-.05-2.54-.05zm-368.432 1.377c-.432.85-.432 1.965-.432 4.193v23.874c0 2.228 0 3.342.432 4.193a3.97 3.97 0 0 0 1.733 1.739c.85.434 1.96.434 4.18.434h362.518c2.22 0 3.332 0 4.18-.434a3.97 3.97 0 0 0 1.734-1.739c.432-.85.432-1.965.432-4.193V153.63c0-2.228 0-3.342-.432-4.193a3.97 3.97 0 0 0-1.734-1.739c-.848-.434-1.96-.434-4.18-.434H75.537c-2.22 0-3.332 0-4.18.434a3.97 3.97 0 0 0-1.733 1.739z" class="F G"/><path d="M146.626 170.25h.778v-3.8c0-.61-.062-1.432-.104-2.043h.042l.54 1.57 1.286 3.58h.57l1.285-3.58.54-1.57h.04l-.114 2.043v3.8h.81v-6.907h-1.047l-1.286 3.685-.467 1.442h-.04l-.487-1.442-1.307-3.685h-1.037v6.907z" class="B"/><path d="M155.238 170.375c.632 0 1.192-.337 1.67-.737h.03l.073.61h.705v-3.138c0-1.274-.52-2.106-1.753-2.106-.808 0-1.513.358-1.98.664l.332.6c.394-.274.923-.548 1.503-.548.83 0 1.037.632 1.037 1.285-2.146.242-3.1.8-3.1 1.916 0 .916.633 1.453 1.473 1.453zm.248-.695c-.497 0-.89-.242-.89-.82 0-.653.58-1.074 2.26-1.285v1.422c-.487.442-.88.684-1.37.684z" class="B"/><path d="M159.3 170.25h.85v-3.285c.342-.864.85-1.18 1.275-1.18.208 0 .322.03.488.084l.165-.758c-.165-.074-.32-.106-.54-.106-.57 0-1.088.41-1.43 1.053h-.032l-.072-.926h-.705v5.117z" class="B"/><path d="M162.895 170.25h.84V168.9l.944-1.116 1.472 2.464h.933l-1.918-3.064 1.7-2.053h-.944l-2.146 2.695h-.03v-5.075h-.84v7.497z" class="B"/><path d="M169.89 170.375c.684 0 1.223-.242 1.66-.526l-.3-.57c-.373.242-.778.4-1.255.4-.964 0-1.617-.695-1.68-1.78h3.4c.02-.126.03-.316.03-.495 0-1.464-.726-2.4-2.012-2.4-1.15 0-2.26 1.022-2.26 2.696s1.068 2.674 2.416 2.674zm-1.586-3.095c.103-1.01.746-1.6 1.45-1.6.788 0 1.244.558 1.244 1.6h-2.695z" class="B"/><path d="M174.475 170.375c.31 0 .653-.094.933-.19l-.166-.653c-.166.063-.394.137-.57.137-.58 0-.778-.358-.778-1v-2.843h1.358v-.705h-1.358V163.7h-.715l-.104 1.432-.788.052v.653h.747v2.833c0 1 .363 1.705 1.44 1.705z" class="B"/><path d="M176.392 170.25h.85v-5.117h-.85v5.117zm.435-6.17c.332 0 .59-.232.59-.558 0-.337-.26-.558-.59-.558s-.59.22-.59.558c0 .326.26.558.59.558z" class="B"/><path d="M178.943 170.25h.85v-3.706c.508-.516.86-.8 1.38-.8.664 0 .954.41.954 1.37v3.127h.85v-3.243c0-1.306-.477-2-1.534-2-.695 0-1.213.38-1.7.864h-.03l-.073-.737h-.705v5.117z" class="B"/><path d="M186.313 172.607c1.566 0 2.55-.82 2.55-1.768 0-.853-.59-1.222-1.763-1.222h-.974c-.684 0-.892-.23-.892-.558 0-.284.145-.453.322-.61.228.116.508.18.756.18 1.027 0 1.846-.684 1.846-1.78 0-.432-.176-.82-.415-1.053h1.037v-.663h-1.752c-.187-.074-.436-.127-.716-.127-1.026 0-1.897.706-1.897 1.822 0 .61.322 1.105.653 1.38v.042c-.26.18-.55.516-.55.948 0 .4.197.674.446.832v.042c-.457.316-.736.726-.736 1.158 0 .885.85 1.38 2.083 1.38zm0-4.56c-.58 0-1.067-.474-1.067-1.22s.477-1.2 1.067-1.2 1.068.442 1.068 1.2-.487 1.22-1.068 1.22zm.125 3.96c-.912 0-1.462-.347-1.462-.895 0-.294.156-.6.518-.863.218.063.457.084.654.084h.87c.653 0 1.016.158 1.016.632 0 .537-.633 1.042-1.597 1.042z" class="B"/><path d="M232.98 170.288c1.328 0 1.878-.94 1.878-2.097v-4.735h-.872v4.653c0 1.023-.363 1.432-1.09 1.432-.488 0-.872-.225-1.173-.757l-.623.43c.395.706 1.017 1.074 1.88 1.074z" class="B"/><path d="M237.78 170.288c.633 0 1.193-.328 1.67-.716h.03l.073.593h.706v-3.048c0-1.237-.52-2.045-1.754-2.045-.81 0-1.515.348-1.982.644l.332.583c.394-.266.924-.532 1.505-.532.83 0 1.037.614 1.037 1.248-2.148.235-3.092.777-3.092 1.86 0 .9.633 1.412 1.474 1.412zm.25-.675c-.5 0-.893-.236-.893-.798 0-.634.58-1.043 2.262-1.248v1.38c-.487.43-.882.665-1.37.665z" class="B"/><path d="M241.845 170.165h.85v-3.6c.51-.5.86-.767 1.38-.767.664 0 .955.4.955 1.33v3.037h.85v-3.15c0-1.268-.478-1.943-1.536-1.943-.695 0-1.214.368-1.69.84h-.032l-.072-.716h-.706v4.97z" class="B"/><path d="M249.162 170.165h4.275v-.726h-1.92c-.342 0-.747.03-1.1.06 1.567-1.616 2.698-2.833 2.698-4.06 0-1.156-.758-1.923-1.982-1.923-.862 0-1.453.4-2.003.992l.488.48c.384-.44.86-.787 1.41-.787.84 0 1.256.53 1.256 1.278 0 1.053-1.12 2.23-3.113 4.183v.5z" class="B"/><path d="M257.06 170.165h.81v-1.8h.903v-.675h-.903v-4.05h-.954l-2.833 4.173v.552h2.978v1.8zm-2.075-2.475l1.546-2.23.54-.92h.042l-.052 1.258v1.892h-2.075z" class="B"/><path d="M259.758 171.904c.84-.348 1.36-1.033 1.36-1.913 0-.614-.27-.992-.716-.992-.342 0-.633.225-.633.593 0 .38.28.583.612.583.03 0 .073 0 .104-.01.01.542-.342.992-.934 1.248l.208.49z" class="B"/><use xlink:href="#H" class="B"/><path d="M271.466 170.288c1.317 0 2.116-1.217 2.116-3.406s-.8-3.365-2.116-3.365c-1.33 0-2.128 1.177-2.128 3.365s.8 3.406 2.128 3.406zm0-.675c-.78 0-1.298-.818-1.298-2.73s.52-2.7 1.298-2.7c.767 0 1.286.778 1.286 2.7s-.52 2.73-1.286 2.73z" class="B"/><use xlink:href="#I" class="B"/><path d="M281.78 170.288c1.318 0 2.117-1.217 2.117-3.406s-.8-3.365-2.117-3.365c-1.328 0-2.127 1.177-2.127 3.365s.8 3.406 2.127 3.406zm0-.675c-.778 0-1.297-.818-1.297-2.73s.52-2.7 1.297-2.7c.768 0 1.287.778 1.287 2.7s-.52 2.73-1.287 2.73z" class="B"/><path d="M334.643 170.496c1.327 0 2.172-1.26 2.172-3.552 0-2.283-.845-3.488-2.172-3.488s-2.17 1.195-2.17 3.488.844 3.552 2.17 3.552zm0-.96c-.613 0-1.065-.672-1.065-2.592s.452-2.528 1.065-2.528c.624 0 1.066.608 1.066 2.528s-.442 2.592-1.066 2.592z" class="B"/><path d="M339.808 170.496c1.297 0 2.162-.8 2.162-1.846 0-.906-.513-1.408-1.106-1.76v-.043c.412-.32.855-.885.855-1.557 0-1.1-.734-1.835-1.88-1.835-1.106 0-1.93.704-1.93 1.803 0 .714.392 1.216.885 1.59v.043c-.604.34-1.157.895-1.157 1.738 0 1.1.925 1.867 2.172 1.867zm.423-3.957c-.714-.3-1.287-.598-1.287-1.28 0-.587.382-.928.874-.928.593 0 .945.437.945 1.034 0 .427-.19.81-.532 1.174zm-.403 3.082c-.653 0-1.176-.448-1.176-1.12 0-.523.292-.96.694-1.27.864.373 1.538.64 1.538 1.376 0 .63-.442 1.013-1.056 1.013z" class="B"/><path d="M343.767 166.848c.422 0 .744-.352.744-.832s-.322-.832-.744-.832-.754.352-.754.832.33.832.754.832zm0 3.648c.422 0 .744-.352.744-.832s-.322-.832-.744-.832-.754.352-.754.832.33.832.754.832z" class="B"/><path d="M348.154 170.368h1.086v-1.75h.804v-.95h-.804v-4.085h-1.377l-2.534 4.202v.832h2.825v1.75zm-1.68-2.7l1.166-1.888.523-1.056h.04l-.05 1.408v1.536h-1.68z" class="B"/><path d="M352.756 166.89c-.643 0-1.015-.416-1.015-1.216 0-.822.432-1.28.955-1.28.623 0 1.086.512 1.206 1.706-.33.555-.774.8-1.146.8zm-.27 3.605c1.317 0 2.513-1.1 2.513-3.733 0-2.283-1.066-3.307-2.312-3.307-1.096 0-2.01.864-2.01 2.22 0 1.418.764 2.1 1.86 2.1.462 0 1.025-.3 1.397-.79-.05 1.877-.703 2.506-1.508 2.506a1.37 1.37 0 0 1-1.025-.512l-.624.747a2.24 2.24 0 0 0 1.71.768z" class="B"/><path d="M393.012 170.368h3.9v-1.003h-1.273v-5.78h-.876c-.407.256-.856.427-1.497.555v.768h1.19v4.458h-1.446v1.003z" class="B"/><path d="M399.192 170.368h1.192c.112-2.646.377-4.064 1.894-6.037v-.747h-4.35v1.035h3.066c-1.253 1.824-1.69 3.338-1.803 5.75z" class="B"/><path d="M404.11 166.848c.428 0 .754-.352.754-.832s-.326-.832-.754-.832-.764.352-.764.832.336.832.764.832zm0 3.648c.428 0 .754-.352.754-.832s-.326-.832-.754-.832-.764.352-.764.832.336.832.764.832z" class="B"/><path d="M406.262 170.368h3.9v-1.003H408.9v-5.78h-.876c-.407.256-.856.427-1.497.555v.768h1.192v4.458h-1.447v1.003z" class="B"/><path d="M413.338 170.496c1.345 0 2.2-1.26 2.2-3.552 0-2.283-.856-3.488-2.2-3.488s-2.2 1.195-2.2 3.488.856 3.552 2.2 3.552zm0-.96c-.62 0-1.08-.672-1.08-2.592s.458-2.528 1.08-2.528c.632 0 1.08.608 1.08 2.528s-.448 2.592-1.08 2.592z" class="B"/><use xlink:href="#J" fill="#17b5ab" class="F"/><path d="M83.974 169.792v-7.744h1.228v3.517h.032l2.467-3.517h1.366l-2.128 3.02 2.488 4.725H88.07l-1.874-3.647-.995 1.385v2.262h-1.228z" class="E"/><path d="M91.606 165.67l-.243.948h1.768l-.243-.948-.328-1.267-.296-1.3h-.042l-.296 1.302-.318 1.255zm-2.318 4.12l2.255-7.744h1.44l2.255 7.744h-1.292l-.54-2.096h-2.33l-.54 2.096h-1.25z" class="E"/><path d="M69.19 109.25c0-2.217 0-3.326.432-4.173.38-.745.987-1.35 1.733-1.73.85-.43 1.96-.43 4.18-.43h362.518c2.22 0 3.332 0 4.18.43a3.97 3.97 0 0 1 1.734 1.731c.432.847.432 1.956.432 4.173v25.343c0 2.217 0 3.326-.432 4.173a3.97 3.97 0 0 1-1.734 1.731c-.848.43-1.96.43-4.18.43H75.537c-2.22 0-3.332 0-4.18-.43-.746-.38-1.353-.986-1.733-1.73-.432-.847-.432-1.956-.432-4.173V109.25z" class="E"/><path d="M438.055 103.708H75.537l-2.54.05c-.612.05-.986.144-1.28.294a3.17 3.17 0 0 0-1.387 1.384c-.15.294-.244.667-.294 1.278-.05.62-.05 1.414-.05 2.536v25.343l.05 2.536c.05.61.145.985.294 1.278a3.17 3.17 0 0 0 1.387 1.384c.294.15.668.244 1.28.294.622.05 1.417.05 2.54.05l365.058-.05c.613-.05.986-.144 1.28-.294a3.17 3.17 0 0 0 1.387-1.384c.15-.293.244-.667.294-1.278.05-.62.052-1.414.052-2.536V109.25l-.052-2.536c-.05-.61-.144-.984-.294-1.278a3.17 3.17 0 0 0-1.387-1.384c-.294-.15-.667-.244-1.28-.294-.62-.05-1.416-.05-2.54-.05zm-368.432 1.37c-.432.847-.432 1.956-.432 4.173v25.343c0 2.217 0 3.326.432 4.173.38.745.987 1.35 1.733 1.73.85.43 1.96.43 4.18.43h362.518c2.22 0 3.332 0 4.18-.43a3.97 3.97 0 0 0 1.734-1.731c.432-.847.432-1.956.432-4.173V109.25c0-2.217 0-3.326-.432-4.173a3.97 3.97 0 0 0-1.734-1.731c-.848-.43-1.96-.43-4.18-.43H75.537c-2.22 0-3.332 0-4.18.43-.746.38-1.353.986-1.733 1.73z" class="F G"/><path d="M146.626 126.055h1.732c2.04 0 3.153-1.31 3.153-3.558 0-2.235-1.113-3.492-3.195-3.492h-1.7v7.05zm.856-.73v-5.59h.772c1.577 0 2.37.99 2.37 2.762 0 1.785-.793 2.827-2.37 2.827h-.772z" class="B"/><path d="M154.913 126.184c.68 0 1.216-.247 1.65-.538l-.3-.58c-.37.247-.773.41-1.247.41-.958 0-1.607-.7-1.67-1.817h3.38a3.65 3.65 0 0 0 .031-.505c0-1.494-.722-2.45-2-2.45-1.144 0-2.247 1.042-2.247 2.75s1.062 2.73 2.4 2.73zm-1.576-3.16c.103-1.032.742-1.623 1.442-1.623.783 0 1.237.57 1.237 1.623h-2.68z" class="B"/><path d="M159.127 126.055h1l1.772-5.223h-.835l-.948 2.966-.453 1.537h-.04l-.464-1.537-.948-2.966h-.876l1.803 5.223z" class="B"/><path d="M164.845 126.184c.68 0 1.216-.247 1.65-.538l-.3-.58c-.37.247-.773.41-1.247.41-.958 0-1.607-.7-1.67-1.817h3.38c.02-.13.03-.322.03-.505 0-1.494-.72-2.45-2-2.45-1.143 0-2.246 1.042-2.246 2.75s1.06 2.73 2.4 2.73zm-1.577-3.16c.104-1.032.742-1.623 1.443-1.623.783 0 1.237.57 1.237 1.623h-2.68z" class="B"/><path d="M168.823 126.184c.227 0 .37-.032.485-.086l-.114-.666c-.092.02-.134.02-.185.02-.124 0-.237-.107-.237-.387v-6.663h-.845v6.6c0 .763.257 1.182.896 1.182z" class="B"/><path d="M172.5 126.184c1.226 0 2.318-1 2.318-2.73 0-1.752-1.092-2.75-2.318-2.75s-2.32 1-2.32 2.75c0 1.73 1.092 2.73 2.32 2.73zm0-.73c-.856 0-1.443-.806-1.443-2 0-1.204.587-2.02 1.443-2.02.865 0 1.442.817 1.442 2.02 0 1.193-.577 2-1.442 2z" class="B"/><path d="M176.138 128.258h.845v-1.762l-.02-.914c.464.376.928.602 1.39.602 1.144 0 2.164-1.043 2.164-2.816 0-1.623-.7-2.665-1.978-2.665-.588 0-1.144.333-1.597.73h-.03l-.072-.6h-.7v7.426zm2.07-2.816c-.33 0-.773-.15-1.226-.548v-2.74c.494-.463.917-.7 1.34-.7.948 0 1.32.774 1.32 1.924 0 1.3-.608 2.074-1.432 2.074z" class="B"/><path d="M181.853 126.055h.845v-3.783c.464-.538.886-.806 1.257-.806.64 0 .938.42.938 1.397v3.192h.845v-3.783c.464-.538.866-.806 1.257-.806.63 0 .927.42.927 1.397v3.192h.845v-3.3c0-1.333-.494-2.042-1.525-2.042-.608 0-1.123.408-1.648 1-.206-.623-.618-1-1.38-1-.598 0-1.123.387-1.556.88h-.03l-.072-.752h-.7v5.223z" class="B"/><path d="M192.426 126.184c.68 0 1.216-.247 1.65-.538l-.3-.58c-.37.247-.773.41-1.247.41-.958 0-1.607-.7-1.67-1.817h3.38a3.65 3.65 0 0 0 .031-.505c0-1.494-.72-2.45-2-2.45-1.144 0-2.246 1.042-2.246 2.75s1.06 2.73 2.4 2.73zm-1.576-3.16c.103-1.032.742-1.623 1.442-1.623.784 0 1.237.57 1.237 1.623h-2.68z" class="B"/><path d="M195.508 126.055h.845v-3.783c.505-.527.855-.806 1.37-.806.66 0 .948.42.948 1.397v3.192h.845v-3.3c0-1.333-.474-2.042-1.525-2.042-.69 0-1.206.387-1.68.88h-.03l-.072-.752h-.7v5.223z" class="B"/><path d="M202.72 126.184c.31 0 .65-.097.927-.194l-.165-.666c-.165.065-.39.14-.566.14-.577 0-.773-.366-.773-1v-2.902h1.35v-.72h-1.35v-1.462h-.71l-.103 1.462-.783.053v.667h.742v2.89c0 1.032.36 1.74 1.432 1.74z" class="B"/><path d="M232.98 125.938c1.328 0 1.878-.94 1.878-2.096v-4.735h-.872v4.653c0 1.023-.363 1.432-1.09 1.432-.488 0-.872-.225-1.173-.757l-.623.43c.395.706 1.017 1.074 1.88 1.074z" class="B"/><path d="M237.78 125.938c.633 0 1.193-.327 1.67-.716h.03l.073.594h.706v-3.048c0-1.238-.52-2.045-1.754-2.045-.81 0-1.515.347-1.982.644l.332.583c.394-.266.924-.532 1.505-.532.83 0 1.037.614 1.037 1.248-2.148.235-3.092.777-3.092 1.86 0 .9.633 1.41 1.474 1.41zm.25-.675c-.5 0-.893-.235-.893-.797 0-.634.58-1.044 2.262-1.248v1.38c-.487.43-.882.664-1.37.664z" class="B"/><path d="M241.845 125.816h.85v-3.6c.51-.5.86-.767 1.38-.767.664 0 .955.4.955 1.33v3.038h.85v-3.15c0-1.268-.478-1.943-1.536-1.943-.695 0-1.214.368-1.69.838h-.032l-.072-.716h-.706v4.97z" class="B"/><path d="M249.162 125.816h4.275v-.727h-1.92c-.342 0-.747.03-1.1.062 1.567-1.616 2.698-2.833 2.698-4.06 0-1.156-.758-1.923-1.982-1.923-.862 0-1.453.4-2.003.992l.488.48c.384-.44.86-.788 1.41-.788.84 0 1.256.532 1.256 1.28 0 1.053-1.12 2.23-3.113 4.182v.502z" class="B"/><path d="M257.06 125.816h.81v-1.8h.903v-.675h-.903v-4.05h-.954l-2.833 4.172v.553h2.978v1.8zm-2.075-2.475l1.546-2.23.54-.92h.042l-.052 1.258v1.892h-2.075z" class="B"/><path d="M259.758 127.554c.84-.348 1.36-1.033 1.36-1.912 0-.614-.27-.992-.716-.992-.342 0-.633.225-.633.593 0 .378.28.583.612.583.03 0 .073 0 .104-.01.01.542-.342.992-.934 1.247l.208.49z" class="B"/><path d="M264.14 125.816h4.275v-.727h-1.92c-.342 0-.747.03-1.1.062 1.567-1.616 2.698-2.833 2.698-4.06 0-1.156-.757-1.923-1.982-1.923-.86 0-1.453.4-2.003.992l.488.48c.384-.44.86-.788 1.41-.788.84 0 1.256.532 1.256 1.28 0 1.053-1.12 2.23-3.113 4.182v.502z" class="B"/><path d="M271.466 125.938c1.317 0 2.116-1.217 2.116-3.405s-.8-3.365-2.116-3.365c-1.33 0-2.128 1.176-2.128 3.365s.8 3.405 2.128 3.405zm0-.675c-.78 0-1.298-.818-1.298-2.73s.52-2.7 1.298-2.7c.767 0 1.286.777 1.286 2.7s-.52 2.73-1.286 2.73z" class="B"/><path d="M274.455 125.816h4.275v-.727h-1.92c-.342 0-.747.03-1.1.062 1.567-1.616 2.698-2.833 2.698-4.06 0-1.156-.758-1.923-1.982-1.923-.86 0-1.453.4-2.003.992l.488.48c.384-.44.86-.788 1.41-.788.84 0 1.256.532 1.256 1.28 0 1.053-1.12 2.23-3.113 4.182v.502z" class="B"/><path d="M281.78 125.938c1.318 0 2.117-1.217 2.117-3.405s-.8-3.365-2.117-3.365c-1.328 0-2.127 1.176-2.127 3.365s.8 3.405 2.127 3.405zm0-.675c-.778 0-1.297-.818-1.297-2.73s.52-2.7 1.297-2.7c.768 0 1.287.777 1.287 2.7s-.52 2.73-1.287 2.73z" class="B"/><use xlink:href="#K" class="B"/><path d="M339.7 122.54c-.647 0-1.02-.416-1.02-1.216 0-.82.434-1.28.96-1.28.626 0 1.09.512 1.212 1.707-.333.555-.778.79-1.15.79zm-.273 3.605c1.323 0 2.525-1.098 2.525-3.733 0-2.282-1.07-3.306-2.323-3.306-1.1 0-2.02.864-2.02 2.218 0 1.42.768 2.1 1.87 2.1.464 0 1.03-.298 1.403-.79-.05 1.877-.707 2.507-1.514 2.507-.394 0-.788-.214-1.03-.512l-.626.746a2.25 2.25 0 0 0 1.717.768z" class="B"/><path d="M343.817 122.498c.424 0 .748-.35.748-.83s-.324-.832-.748-.832-.757.352-.757.832.333.83.757.83zm0 3.648c.424 0 .748-.352.748-.832s-.324-.832-.748-.832-.757.352-.757.832.333.832.757.832z" class="B"/><path d="M347.8 126.146c1.333 0 2.182-1.258 2.182-3.552 0-2.282-.85-3.487-2.182-3.487s-2.18 1.194-2.18 3.487.848 3.552 2.18 3.552zm0-.96c-.616 0-1.07-.672-1.07-2.592s.454-2.527 1.07-2.527c.626 0 1.07.608 1.07 2.527s-.445 2.592-1.07 2.592z" class="B"/><path d="M351.13 126.018h3.868v-1.002h-1.262v-5.78h-.87c-.404.256-.848.426-1.484.554v.768h1.18v4.46h-1.434v1.002z" class="B"/><path d="M393.012 126.018h3.9v-1.002h-1.273v-5.78h-.876c-.407.256-.856.426-1.497.554v.768h1.19v4.46h-1.446v1.002z" class="B"/><path d="M400.282 126.146c1.1 0 2.037-.874 2.037-2.23 0-1.42-.774-2.1-1.895-2.1-.468 0-1.028.3-1.405.8.05-1.877.713-2.507 1.528-2.507a1.38 1.38 0 0 1 1.029.512l.63-.746a2.26 2.26 0 0 0-1.732-.768c-1.324 0-2.546 1.088-2.546 3.722 0 2.283 1.08 3.317 2.353 3.317zm-.02-.938c-.63 0-1.09-.512-1.212-1.718.367-.565.795-.778 1.162-.778.64 0 1.018.405 1.018 1.205 0 .832-.428 1.29-.968 1.29z" class="B"/><path d="M404.11 122.498c.428 0 .754-.35.754-.83s-.326-.832-.754-.832-.764.352-.764.832.336.83.764.83zm0 3.648c.428 0 .754-.352.754-.832s-.326-.832-.754-.832-.764.352-.764.832.336.832.764.832z" class="B"/><path d="M407.963 126.146c1.192 0 2.282-.853 2.282-2.336 0-1.46-.927-2.122-2.037-2.122-.337 0-.58.085-.856.224l.132-1.643h2.445v-1.034h-3.463l-.194 3.35.56.373c.388-.267.622-.384 1.04-.384.714 0 1.192.46 1.192 1.27 0 .822-.53 1.302-1.253 1.302-.652 0-1.13-.342-1.517-.726l-.54.8a2.91 2.91 0 0 0 2.21.938z" class="B"/><path d="M413.35 126.146c1.314 0 2.2-.8 2.2-1.845 0-.907-.52-1.408-1.12-1.76v-.043c.418-.32.866-.885.866-1.557 0-1.098-.744-1.834-1.905-1.834-1.12 0-1.956.704-1.956 1.802 0 .715.398 1.216.897 1.59v.043c-.61.34-1.172.896-1.172 1.74 0 1.098.937 1.866 2.2 1.866zm.427-3.957c-.723-.298-1.303-.597-1.303-1.28 0-.586.387-.928.886-.928.6 0 .957.438.957 1.035 0 .427-.193.81-.54 1.173zm-.407 3.083c-.662 0-1.192-.448-1.192-1.12 0-.523.296-.96.703-1.27.876.374 1.56.64 1.56 1.376 0 .63-.45 1.014-1.07 1.014z" class="B"/><path d="M89.606 133.9a11.97 11.97 0 0 0 11.967-11.968 11.97 11.97 0 0 0-11.967-11.967 11.97 11.97 0 0 0-11.967 11.967 11.97 11.97 0 0 0 11.967 11.968z" fill="#a29bfe" class="F"/><path d="M84.82 125.442c-.532 0-.983-.106-1.353-.32-.362-.213-.663-.53-.902-.947l.925-.674c.154.274.33.476.532.605.2.122.416.183.647.183.355 0 .62-.107.798-.32s.266-.586.266-1.12v-5.014h1.34v5.128a3.61 3.61 0 0 1-.127.971 2.2 2.2 0 0 1-.405.788c-.185.22-.42.396-.705.525s-.624.194-1.017.194z" class="E"/><path d="M91.897 125.442a3.4 3.4 0 0 1-1.353-.262 3.02 3.02 0 0 1-1.052-.777c-.293-.343-.52-.754-.682-1.234s-.243-1.024-.243-1.633c0-.6.08-1.138.243-1.6.162-.48.39-.883.682-1.21s.644-.578 1.052-.754a3.4 3.4 0 0 1 1.353-.262c.493 0 .944.087 1.352.262s.76.427 1.052.754c.3.328.532.73.694 1.21.162.472.243 1.01.243 1.6 0 .61-.08 1.154-.243 1.633s-.393.89-.694 1.234a3.02 3.02 0 0 1-1.052.777c-.408.175-.86.262-1.352.262zm0-1.153c.3 0 .57-.065.81-.194s.443-.313.613-.55c.17-.243.3-.533.393-.868.093-.342.14-.723.14-1.142 0-.837-.177-1.492-.532-1.964a1.66 1.66 0 0 0-1.422-.72 1.69 1.69 0 0 0-1.433.72c-.347.472-.52 1.127-.52 1.964 0 .42.046.8.14 1.142.093.335.224.625.393.868.17.236.374.42.613.55s.51.194.81.194z" class="E"/><path d="M69.19 239.484c0-2.218 0-3.327.432-4.174a3.96 3.96 0 0 1 1.733-1.73c.848-.432 1.96-.432 4.18-.432h362.518c2.22 0 3.332 0 4.18.432a3.96 3.96 0 0 1 1.734 1.73c.432.847.432 1.956.432 4.174v25.342c0 2.218 0 3.327-.432 4.174-.38.745-.987 1.35-1.734 1.73-.848.432-1.96.432-4.18.432H75.537c-2.22 0-3.332 0-4.18-.432-.746-.38-1.353-.985-1.733-1.73-.432-.847-.432-1.956-.432-4.174v-25.342z" class="E"/><path d="M438.055 233.94H75.537l-2.54.05c-.612.05-.986.145-1.28.294a3.17 3.17 0 0 0-1.387 1.385c-.15.293-.244.666-.294 1.277-.05.62-.05 1.415-.05 2.537v25.342l.05 2.536c.05.612.145.985.294 1.278.304.596.8 1.08 1.387 1.384.294.15.667.245 1.28.294.622.05 1.417.052 2.54.052l365.058-.052c.613-.05.987-.144 1.28-.294.597-.303 1.083-.788 1.387-1.384.15-.293.244-.666.294-1.278.05-.62.052-1.414.052-2.536v-25.342l-.052-2.537c-.05-.61-.144-.984-.294-1.277a3.17 3.17 0 0 0-1.387-1.385c-.293-.15-.667-.244-1.28-.294-.62-.05-1.416-.05-2.54-.05zM69.623 235.3c-.432.847-.432 1.956-.432 4.174v25.342c0 2.218 0 3.327.432 4.174.38.745.987 1.35 1.733 1.73.848.432 1.96.432 4.18.432h362.518c2.22 0 3.332 0 4.18-.432.747-.38 1.353-.985 1.734-1.73.432-.847.432-1.956.432-4.174v-25.342c0-2.218 0-3.327-.432-4.174a3.96 3.96 0 0 0-1.734-1.73c-.848-.432-1.96-.432-4.18-.432H75.537c-2.22 0-3.332 0-4.18.432a3.96 3.96 0 0 0-1.733 1.73z" class="F G"/><path d="M146.626 256.08h1.734c2.042 0 3.156-1.312 3.156-3.56 0-2.238-1.114-3.497-3.198-3.497h-1.692v7.058zm.857-.73v-5.595h.773c1.58 0 2.373 1 2.373 2.765 0 1.786-.794 2.83-2.373 2.83h-.773z" class="B"/><path d="M154.923 256.2c.68 0 1.217-.248 1.65-.538l-.3-.58c-.372.247-.774.408-1.25.408-.96 0-1.61-.7-1.67-1.818h3.384a3.66 3.66 0 0 0 .031-.505c0-1.496-.722-2.454-2.002-2.454-1.145 0-2.25 1.044-2.25 2.755s1.063 2.733 2.404 2.733zm-1.578-3.164c.103-1.032.743-1.624 1.444-1.624.784 0 1.238.57 1.238 1.624h-2.682z" class="B"/><path d="M159.32 256.2c1.186 0 1.836-.71 1.836-1.56 0-1-.805-1.302-1.527-1.582-.567-.226-1.114-.41-1.114-.904 0-.398.29-.753.918-.753.444 0 .805.194 1.145.463l.403-.56c-.382-.323-.93-.592-1.558-.592-1.083 0-1.723.646-1.723 1.485 0 .882.784 1.237 1.496 1.506.547.216 1.145.452 1.145 1 0 .452-.33.818-1 .818-.6 0-1.042-.258-1.475-.624l-.423.592c.474.41 1.155.72 1.867.72z" class="B"/><path d="M162.33 256.08h.846v-5.228h-.846v5.228zm.433-6.304c.33 0 .588-.237.588-.57 0-.344-.258-.57-.588-.57s-.588.226-.588.57c0 .334.258.57.588.57z" class="B"/><path d="M166.56 258.49c1.558 0 2.538-.84 2.538-1.808 0-.87-.588-1.248-1.754-1.248h-.97c-.68 0-.888-.237-.888-.57 0-.29.145-.463.32-.624a1.7 1.7 0 0 0 .753.183c1.022 0 1.837-.7 1.837-1.82 0-.44-.176-.84-.413-1.076h1.032v-.677h-1.744c-.186-.076-.433-.13-.712-.13-1.02 0-1.888.72-1.888 1.862a1.88 1.88 0 0 0 .65 1.409v.043c-.258.183-.546.527-.546.97 0 .408.196.688.443.85v.043c-.454.322-.732.742-.732 1.183 0 .904.846 1.4 2.073 1.4zm0-4.66c-.577 0-1.062-.484-1.062-1.248s.474-1.216 1.062-1.216 1.063.452 1.063 1.216-.485 1.248-1.063 1.248zm.124 4.045c-.908 0-1.455-.355-1.455-.914 0-.302.155-.614.516-.883.217.065.454.087.65.087h.867c.65 0 1.01.16 1.01.645 0 .55-.63 1.065-1.59 1.065z" class="B"/><path d="M170.068 256.08h.846v-3.787c.505-.527.856-.807 1.372-.807.66 0 .95.42.95 1.4v3.195h.846v-3.313c0-1.334-.475-2.045-1.527-2.045-.69 0-1.207.388-1.682.883h-.03l-.073-.753h-.7v5.228z" class="B"/><path d="M232.98 256.17c1.328 0 1.878-.94 1.878-2.097v-4.735h-.872v4.653c0 1.023-.363 1.432-1.09 1.432-.488 0-.872-.225-1.173-.757l-.622.43c.394.705 1.016 1.074 1.878 1.074z" class="B"/><path d="M237.78 256.17c.633 0 1.193-.328 1.67-.716h.03l.073.593h.706V253c0-1.237-.52-2.045-1.754-2.045-.81 0-1.515.348-1.982.644l.332.583c.394-.266.924-.532 1.505-.532.83 0 1.037.614 1.037 1.248-2.148.235-3.092.777-3.092 1.86 0 .9.633 1.412 1.474 1.412zm.25-.675c-.498 0-.893-.236-.893-.798 0-.634.58-1.043 2.262-1.248v1.38c-.487.43-.882.665-1.37.665z" class="B"/><path d="M241.845 256.048h.85v-3.6c.51-.5.862-.767 1.38-.767.664 0 .955.4.955 1.33v3.038h.85v-3.15c0-1.268-.477-1.943-1.536-1.943-.695 0-1.214.368-1.69.838h-.03l-.073-.715h-.706v4.97z" class="B"/><path d="M249.162 256.048h4.275v-.726h-1.92c-.342 0-.747.03-1.1.06 1.567-1.616 2.698-2.833 2.698-4.06 0-1.156-.758-1.923-1.982-1.923-.86 0-1.453.4-2.003.992l.488.48c.384-.44.86-.787 1.41-.787.84 0 1.256.53 1.256 1.278 0 1.053-1.12 2.23-3.113 4.183v.5z" class="B"/><path d="M256.353 256.17c1.215 0 2.18-.706 2.18-1.862 0-.9-.633-1.472-1.432-1.656v-.04c.716-.266 1.203-.767 1.203-1.555 0-1.053-.83-1.657-1.982-1.657-.778 0-1.4.348-1.9.82l.457.53c.394-.388.86-.664 1.41-.664.706 0 1.142.398 1.142 1.032 0 .686-.467 1.218-1.88 1.218v.644c1.578 0 2.117.52 2.117 1.3 0 .726-.57 1.196-1.37 1.196-.78 0-1.298-.368-1.692-.777l-.436.552c.447.48 1.12.92 2.18.92z" class="B"/><path d="M259.758 257.786c.84-.347 1.36-1.032 1.36-1.912 0-.614-.27-.992-.716-.992-.342 0-.633.225-.633.593 0 .38.28.583.612.583.03 0 .073 0 .104-.01.01.542-.342.992-.934 1.248l.208.5z" class="B"/><path d="M264.14 256.048h4.275v-.726h-1.92c-.343 0-.748.03-1.11.06 1.567-1.616 2.698-2.833 2.698-4.06 0-1.156-.757-1.923-1.982-1.923-.86 0-1.453.4-2.003.992l.488.48c.384-.44.86-.787 1.41-.787.84 0 1.256.53 1.256 1.278 0 1.053-1.12 2.23-3.113 4.183v.5z" class="B"/><path d="M271.466 256.17c1.318 0 2.117-1.217 2.117-3.406s-.8-3.365-2.117-3.365c-1.33 0-2.128 1.176-2.128 3.365s.8 3.406 2.128 3.406zm0-.675c-.78 0-1.297-.82-1.297-2.73s.518-2.7 1.297-2.7c.768 0 1.286.778 1.286 2.7s-.518 2.73-1.286 2.73z" class="B"/><path d="M274.455 256.048h4.275v-.726h-1.92c-.342 0-.747.03-1.1.06 1.567-1.616 2.698-2.833 2.698-4.06 0-1.156-.757-1.923-1.982-1.923-.86 0-1.453.4-2.003.992l.488.48c.384-.44.86-.787 1.41-.787.84 0 1.256.53 1.256 1.278 0 1.053-1.12 2.23-3.113 4.183v.5z" class="B"/><path d="M281.782 256.17c1.317 0 2.116-1.217 2.116-3.406s-.8-3.365-2.116-3.365c-1.33 0-2.128 1.176-2.128 3.365s.8 3.406 2.128 3.406zm0-.675c-.78 0-1.297-.82-1.297-2.73s.518-2.7 1.297-2.7c.767 0 1.286.778 1.286 2.7s-.52 2.73-1.286 2.73z" class="B"/><use xlink:href="#L" class="B"/><path d="M339.886 252.773c-.662 0-1.045-.416-1.045-1.215 0-.822.445-1.28.983-1.28.64 0 1.117.512 1.242 1.706-.342.555-.797.79-1.18.79zm-.28 3.606c1.355 0 2.586-1.1 2.586-3.734 0-2.282-1.096-3.306-2.38-3.306-1.128 0-2.07.864-2.07 2.22 0 1.418.786 2.1 1.914 2.1.475 0 1.055-.3 1.438-.8-.052 1.878-.725 2.507-1.552 2.507-.404 0-.807-.213-1.055-.512l-.642.747c.393.426.973.768 1.76.768z" class="B"/><path d="M344.094 252.73c.434 0 .765-.352.765-.832s-.33-.832-.765-.832-.776.352-.776.832.34.832.776.832zm0 3.648c.434 0 .765-.352.765-.832s-.33-.832-.765-.832-.776.352-.776.832.34.832.776.832z" class="B"/><path d="M348.163 256.38c1.366 0 2.235-1.26 2.235-3.552 0-2.283-.87-3.488-2.235-3.488s-2.234 1.195-2.234 3.488.87 3.552 2.234 3.552zm0-.96c-.63 0-1.096-.672-1.096-2.592s.465-2.528 1.096-2.528c.642 0 1.097.608 1.097 2.528s-.455 2.592-1.097 2.592z" class="B"/><path d="M353.478 256.38c1.334 0 2.224-.8 2.224-1.846 0-.906-.527-1.408-1.138-1.76v-.042c.424-.32.88-.885.88-1.557 0-1.1-.756-1.835-1.935-1.835-1.138 0-1.986.704-1.986 1.803 0 .714.403 1.215.9 1.59v.042c-.62.342-1.2.896-1.2 1.74 0 1.1.952 1.867 2.235 1.867zm.434-3.958c-.734-.298-1.324-.597-1.324-1.28 0-.587.393-.928.9-.928.61 0 .973.437.973 1.034 0 .427-.197.81-.55 1.173zm-.413 3.083c-.673 0-1.21-.448-1.21-1.12 0-.523.3-.96.714-1.27.9.373 1.583.64 1.583 1.376 0 .63-.455 1.013-1.086 1.013z" class="B"/><path d="M393.012 256.25h3.896v-1.003h-1.27v-5.78h-.875c-.407.256-.855.427-1.496.555v.768h1.19v4.458h-1.445v1.003z" class="B"/><path d="M399.184 256.25h1.2c.112-2.646.376-4.064 1.892-6.037v-.747h-4.344v1.035h3.062c-1.25 1.823-1.688 3.338-1.8 5.75z" class="B"/><path d="M404.094 252.73c.427 0 .753-.352.753-.832s-.326-.832-.753-.832-.763.352-.763.832.336.832.763.832zm0 3.648c.427 0 .753-.352.753-.832s-.326-.832-.753-.832-.763.352-.763.832.336.832.763.832z" class="B"/><path d="M407.933 256.38c1.24 0 2.268-.726 2.268-1.963 0-.896-.58-1.472-1.342-1.685v-.043c.7-.288 1.13-.8 1.13-1.557 0-1.152-.855-1.792-2.096-1.792-.773 0-1.393.34-1.943.853l.6.758c.397-.384.794-.64 1.302-.64.6 0 .957.34.957.906 0 .63-.417 1.088-1.69 1.088v.896c1.475 0 1.902.448 1.902 1.152 0 .64-.488 1.024-1.2 1.024-.65 0-1.15-.33-1.536-.747l-.56.8c.457.533 1.15.96 2.197.96z" class="B"/><path d="M413.504 256.38c1.11 0 2.035-.875 2.035-2.23 0-1.418-.773-2.1-1.892-2.1-.468 0-1.028.3-1.404.8.05-1.877.712-2.506 1.526-2.506.386 0 .793.213 1.027.512l.63-.747c-.387-.427-.946-.768-1.73-.768-1.323 0-2.544 1.088-2.544 3.722 0 2.283 1.08 3.318 2.35 3.318zm-.02-.94c-.63 0-1.09-.512-1.21-1.717.367-.566.794-.78 1.16-.78.64 0 1.017.405 1.017 1.205 0 .832-.427 1.29-.966 1.29z" class="B"/><path d="M89.606 264.122a11.97 11.97 0 0 0 11.967-11.967 11.97 11.97 0 0 0-11.967-11.967 11.97 11.97 0 0 0-11.967 11.967 11.97 11.97 0 0 0 11.967 11.967z" fill="#3cd2b8" class="F"/><path d="M85.016 251.225l-.257.86h1.868l-.257-.86-.347-1.152-.313-1.173h-.045l-.313 1.184-.336 1.14zm-2.45 3.746l2.383-7.04h1.522l2.383 7.04H87.49l-.57-1.905h-2.46l-.57 1.905h-1.32z" class="E"/><path d="M89.756 254.97v-7.04h1.33l2.282 3.96.75 1.496h.045l-.112-1.173-.056-1.227v-3.057h1.242v7.04h-1.33L91.624 251l-.75-1.497h-.045l.1 1.174c.045.41.067.81.067 1.205v3.08h-1.242z" class="E"/><path d="M335.744 95.172c-.458 0-.887-.086-1.287-.26a2.9 2.9 0 0 1-1.042-.765c-.29-.337-.518-.753-.688-1.247s-.255-1.06-.255-1.694c0-.627.085-1.188.255-1.682.177-.502.414-.926.7-1.27.303-.345.654-.608 1.054-.788.407-.18.84-.27 1.298-.27s.865.098 1.22.294.647.423.877.682l-.688.882a2.43 2.43 0 0 0-.621-.482c-.222-.126-.474-.188-.755-.188-.296 0-.57.067-.82.2a1.9 1.9 0 0 0-.643.553 2.74 2.74 0 0 0-.422.871c-.096.345-.144.733-.144 1.165 0 .88.177 1.57.532 2.07.363.494.85.74 1.465.74.325 0 .614-.07.865-.212.252-.15.48-.34.688-.577l.688.86c-.296.36-.636.64-1.02.835-.377.188-.8.282-1.265.282z" class="C"/><path d="M340.373 95.172c-.46 0-.78-.145-.965-.435s-.278-.686-.278-1.188v-6.824h1.276v6.895c0 .165.03.282.09.353.06.063.122.094.188.094h.078a.45.45 0 0 0 .122-.024l.166 1.012c-.17.078-.395.118-.676.118z" class="C"/><path d="M344.372 95.172c-.34 0-.666-.067-.976-.2s-.588-.33-.832-.588c-.237-.26-.426-.576-.566-.953s-.21-.804-.21-1.282.07-.906.21-1.282.33-.694.566-.953a2.48 2.48 0 0 1 .832-.588 2.33 2.33 0 0 1 .976-.212 2.33 2.33 0 0 1 .976.212 2.34 2.34 0 0 1 .832.588c.237.26.426.577.566.953.148.377.222.804.222 1.282s-.074.906-.222 1.282c-.14.376-.33.694-.566.953s-.514.455-.832.588c-.3.133-.636.2-.976.2zm0-1.106c.4 0 .714-.173.943-.518.23-.353.344-.82.344-1.4 0-.588-.115-1.055-.344-1.4-.23-.353-.543-.53-.943-.53s-.714.176-.943.53c-.222.345-.333.812-.333 1.4 0 .58.11 1.047.333 1.4.23.345.544.518.943.518z" class="C"/><path d="M350.505 95.172a2.72 2.72 0 0 1-1.042-.2 2.35 2.35 0 0 1-.833-.588c-.236-.26-.42-.576-.554-.953s-.2-.804-.2-1.282.074-.906.222-1.282.348-.694.6-.953.54-.455.865-.588a2.65 2.65 0 0 1 1.043-.212c.355 0 .66.063.9.188a2.92 2.92 0 0 1 .688.459l-.62.882a1.88 1.88 0 0 0-.444-.306.94.94 0 0 0-.466-.118c-.444 0-.803.176-1.076.53-.274.345-.41.812-.41 1.4 0 .58.133 1.047.4 1.4.273.345.625.518 1.054.518.214 0 .414-.047.6-.14a2.83 2.83 0 0 0 .521-.353l.522.894a2.67 2.67 0 0 1-.855.529c-.303.118-.6.177-.92.177z" class="C"/><path d="M353.356 95.03v-8.306h1.253v5.19h.034l2.02-2.66h1.398l-1.864 2.353 2.052 3.424h-1.386l-1.398-2.506-.855 1.035v1.47h-1.253z" class="C"/><path d="M358.082 92.56v-.988h2.64v.988h-2.64z" class="C"/><path d="M362.113 95.03v-7.695h1.287v7.695h-1.287z" class="C"/><path d="M365.133 95.03v-5.777h1.054l.09.776h.044c.244-.25.507-.467.788-.647a1.84 1.84 0 0 1 .998-.271c.584 0 1 .2 1.276.6.266.392.4.957.4 1.694v3.624h-1.275v-3.447c0-.478-.067-.816-.2-1.012s-.352-.294-.655-.294a1.1 1.1 0 0 0-.632.188c-.178.118-.38.294-.6.53v4.035h-1.276z" class="C"/><path d="M231.806 95.033V87.43h1.923c1.1 0 1.956.314 2.57.942s.923 1.57.923 2.825c0 .628-.08 1.182-.242 1.663-.153.48-.38.884-.68 1.21-.293.318-.652.558-1.077.72-.417.163-.894.244-1.428.244h-1.99zm1.274-1.093h.56c.732 0 1.293-.22 1.68-.663.396-.45.594-1.143.594-2.08 0-.93-.198-1.608-.594-2.035s-.956-.64-1.68-.64h-.56v5.418z" class="C"/><path d="M239.872 95.172c-.477 0-.86-.15-1.154-.453-.293-.3-.44-.717-.44-1.22 0-.302.06-.57.176-.802.125-.24.315-.446.57-.616a3.79 3.79 0 0 1 .99-.43c.402-.116.882-.205 1.44-.267-.007-.147-.03-.287-.066-.42-.03-.14-.084-.26-.165-.36-.073-.108-.172-.2-.296-.244-.125-.062-.28-.093-.462-.093a1.98 1.98 0 0 0-.78.163c-.25.11-.495.24-.736.395l-.462-.895a5.26 5.26 0 0 1 1.011-.523 3.27 3.27 0 0 1 1.209-.221c.674 0 1.176.213 1.505.64.337.42.506 1.027.506 1.825v3.383h-1.044l-.088-.628h-.044c-.242.217-.502.4-.78.546-.27.147-.568.22-.9.22zm.406-1.046c.22 0 .418-.054.594-.163.183-.11.377-.264.582-.465v-1.28c-.366.046-.674.108-.923.186s-.45.167-.604.267c-.154.093-.264.202-.33.326a.83.83 0 0 0-.099.395c0 .256.073.442.22.558s.333.174.56.174z" class="C"/><path d="M245.96 95.172c-.315 0-.583-.05-.802-.15a1.44 1.44 0 0 1-.528-.419c-.132-.186-.23-.403-.297-.65a3.84 3.84 0 0 1-.088-.849v-2.72h-.77v-1l.835-.058.154-1.558h1.055v1.558h1.374v1.058h-1.374v2.72c0 .667.253 1 .758 1a1.2 1.2 0 0 0 .286-.035 1.3 1.3 0 0 0 .275-.093l.22.988a3.44 3.44 0 0 1-.506.14c-.183.046-.38.07-.593.07z" class="C"/><path d="M250.165 95.172a2.74 2.74 0 0 1-1.044-.198c-.322-.14-.604-.337-.846-.593s-.432-.566-.57-.93c-.132-.372-.198-.794-.198-1.267 0-.465.07-.884.21-1.256s.322-.686.55-.942c.235-.256.502-.453.802-.593s.608-.21.924-.21c.366 0 .688.066.967.198s.51.318.692.558c.2.24.333.527.428.86s.143.698.143 1.093c0 .132-.007.256-.022.372-.007.116-.018.21-.033.28h-3.428c.058.512.227.907.505 1.186.286.27.65.407 1.088.407a1.94 1.94 0 0 0 .649-.105c.205-.078.406-.182.604-.314l.43.837a3.81 3.81 0 0 1-.858.442 2.83 2.83 0 0 1-.989.174zm-1.44-3.535h2.395c0-.442-.09-.787-.274-1.035-.176-.256-.45-.384-.825-.384-.322 0-.604.12-.846.36s-.392.593-.45 1.058z" class="C"/><path d="M148.065 95.033v-6.465h-2.142v-1.14h5.6v1.14h-2.143v6.465h-1.315z" class="C"/><path d="M154.217 95.172c-.385 0-.745-.066-1.077-.198-.333-.14-.624-.337-.873-.593a2.78 2.78 0 0 1-.59-.93c-.136-.372-.204-.794-.204-1.267 0-.465.072-.884.216-1.256s.332-.686.567-.942a2.6 2.6 0 0 1 .827-.593 2.3 2.3 0 0 1 .953-.209c.377 0 .7.066.997.198s.526.318.714.558a2.43 2.43 0 0 1 .443.86c.098.333.147.698.147 1.093a2.91 2.91 0 0 1-.023.372c-.007.116-.02.21-.034.28h-3.537c.06.512.234.907.522 1.186.294.27.67.407 1.122.407.242 0 .465-.035.67-.105a3.13 3.13 0 0 0 .623-.314l.443.837c-.265.178-.56.326-.885.442s-.665.174-1.02.174zm-1.485-3.535h2.47c0-.442-.094-.787-.283-1.035-.182-.256-.465-.384-.85-.384-.333 0-.624.12-.873.36s-.405.593-.465 1.058z" class="C"/><path d="M158.8 95.172c-.492 0-.89-.15-1.19-.453-.302-.3-.453-.717-.453-1.22 0-.302.06-.57.18-.802a1.68 1.68 0 0 1 .59-.616c.272-.17.612-.314 1.02-.43.416-.116.91-.205 1.485-.267-.008-.147-.03-.287-.068-.42-.03-.14-.087-.26-.17-.36-.076-.108-.178-.2-.306-.244-.13-.062-.287-.093-.476-.093-.272 0-.54.054-.805.163-.257.11-.5.24-.76.395l-.476-.895a5.53 5.53 0 0 1 1.043-.523c.386-.147.8-.22 1.247-.22.695 0 1.213.213 1.553.64.348.42.522 1.027.522 1.825v3.383h-1.077l-.09-.628h-.045c-.25.217-.518.4-.805.546a1.94 1.94 0 0 1-.918.221zm.42-1.046c.227 0 .43-.054.612-.163a3.23 3.23 0 0 0 .601-.465v-1.28c-.378.046-.695.108-.952.186s-.465.167-.624.267c-.16.093-.272.202-.34.326a.81.81 0 0 0-.102.395c0 .256.076.442.227.558a.92.92 0 0 0 .578.174z" class="C"/><path d="M163.295 95.033v-5.71h1.077l.09.78h.045a4.01 4.01 0 0 1 .76-.651 1.71 1.71 0 0 1 .941-.267c.408 0 .733.09.975.267.25.178.438.43.567.756a4.5 4.5 0 0 1 .827-.733c.287-.194.61-.29.964-.29.59 0 1.024.198 1.304.593.28.388.42.946.42 1.674v3.58h-1.315v-3.407c0-.473-.072-.806-.215-1-.136-.194-.348-.29-.635-.29-.348 0-.737.236-1.168.71v3.988h-1.304v-3.407c0-.473-.072-.806-.215-1-.136-.194-.352-.29-.646-.29-.348 0-.737.236-1.168.71v3.988h-1.304z" class="C"/><path d="M78.343 95.033V87.43h1.326l2.272 4.28.746 1.616h.044l-.11-1.267-.056-1.326V87.43H83.8v7.604h-1.325l-2.272-4.28-.746-1.616h-.045l.1 1.267a12.99 12.99 0 0 1 .067 1.302v3.325h-1.236z" class="C"/><path d="M86.866 95.172c-.483 0-.873-.15-1.17-.453-.297-.3-.446-.717-.446-1.22a1.74 1.74 0 0 1 .178-.802c.126-.24.32-.446.58-.616.267-.17.602-.314 1.002-.43.408-.116.895-.205 1.46-.267a1.89 1.89 0 0 0-.067-.419.84.84 0 0 0-.167-.361.68.68 0 0 0-.301-.244c-.126-.062-.282-.093-.468-.093-.267 0-.53.054-.79.163-.252.11-.5.24-.746.395l-.468-.895a5.38 5.38 0 0 1 1.025-.523 3.35 3.35 0 0 1 1.225-.221c.683 0 1.192.213 1.526.64.342.42.512 1.027.512 1.825v3.383h-1.058l-.09-.628h-.044c-.245.217-.51.4-.79.546a1.88 1.88 0 0 1-.902.221zm.412-1.046c.223 0 .423-.054.602-.163a3.17 3.17 0 0 0 .59-.465v-1.28c-.37.046-.683.108-.936.186s-.457.167-.613.267c-.156.093-.267.202-.334.326a.82.82 0 0 0-.1.395c0 .256.074.442.223.558s.338.174.568.174z" class="C"/><path d="M91.284 95.033v-5.71h1.058l.09.78h.044c.23-.256.48-.473.746-.65a1.66 1.66 0 0 1 .925-.267c.4 0 .72.09.958.267.245.178.43.43.557.756a4.46 4.46 0 0 1 .813-.733c.282-.194.598-.29.947-.29.58 0 1.006.198 1.28.593.275.388.412.946.412 1.674v3.58h-1.292v-3.407c0-.473-.07-.806-.212-1-.134-.194-.342-.29-.624-.29-.342 0-.724.236-1.147.71v3.988h-1.28v-3.407c0-.473-.07-.806-.212-1-.134-.194-.345-.29-.635-.29-.342 0-.724.236-1.147.71v3.988h-1.28z" class="C"/><path d="M103 95.172c-.38 0-.73-.066-1.058-.198-.327-.14-.613-.337-.858-.593s-.438-.566-.58-.93c-.134-.372-.2-.794-.2-1.267 0-.465.07-.884.21-1.256a2.96 2.96 0 0 1 .557-.942c.238-.256.51-.453.813-.593a2.23 2.23 0 0 1 .936-.209c.37 0 .698.066.98.198a1.88 1.88 0 0 1 .702.558 2.43 2.43 0 0 1 .434.86 3.9 3.9 0 0 1 .145 1.093c0 .132-.007.256-.022.372-.008.116-.02.21-.034.28h-3.475c.06.512.23.907.512 1.186.3.27.658.407 1.103.407a1.98 1.98 0 0 0 .657-.105c.208-.078.412-.182.613-.314l.434.837c-.26.178-.55.326-.868.442a2.91 2.91 0 0 1-1.003.174zm-1.46-3.535h2.428c0-.442-.093-.787-.278-1.035-.18-.256-.457-.384-.836-.384-.326 0-.612.12-.857.36s-.398.593-.457 1.058z" class="C"/><path d="M393.488 95.172a3.25 3.25 0 0 1-1.295-.259c-.4-.173-.75-.428-1.048-.765a3.79 3.79 0 0 1-.692-1.247c-.17-.494-.257-1.06-.257-1.694 0-.627.086-1.188.257-1.682a3.93 3.93 0 0 1 .714-1.271c.305-.345.658-.608 1.06-.788.41-.18.844-.27 1.305-.27s.87.098 1.228.294.65.423.88.682l-.692.882c-.193-.204-.4-.365-.624-.482-.224-.126-.477-.188-.76-.188-.298 0-.573.067-.826.2-.245.126-.46.3-.647.553-.178.235-.32.526-.424.87-.097.345-.145.733-.145 1.165 0 .88.18 1.57.536 2.07.364.494.855.74 1.472.74.328 0 .618-.07.87-.212.253-.15.483-.34.69-.577l.692.86c-.297.36-.64.64-1.026.835-.38.188-.804.282-1.272.282z" class="C"/><path d="M398.142 95.172c-.46 0-.784-.145-.97-.435s-.28-.686-.28-1.188v-6.824h1.283v6.895c0 .165.03.282.09.353.06.063.123.094.2.094h.078c.03 0 .07-.008.122-.024l.168 1.012c-.17.078-.398.118-.68.118z" class="C"/><path d="M402.164 95.172a2.48 2.48 0 0 1-.982-.2 2.49 2.49 0 0 1-.836-.588c-.238-.26-.428-.576-.57-.953s-.212-.804-.212-1.282.07-.906.212-1.282.33-.694.57-.953c.245-.26.524-.455.836-.588a2.36 2.36 0 0 1 .982-.212 2.36 2.36 0 0 1 1.819.8c.238.26.428.577.57.953.15.377.223.804.223 1.282s-.074.906-.223 1.282c-.14.376-.33.694-.57.953s-.517.455-.837.588c-.312.133-.64.2-.982.2zm0-1.106c.402 0 .718-.173.95-.518.23-.353.346-.82.346-1.4 0-.588-.116-1.055-.346-1.4-.23-.353-.547-.53-.95-.53s-.718.176-.948.53c-.223.345-.335.812-.335 1.4 0 .58.112 1.047.335 1.4a1.08 1.08 0 0 0 .948.518z" class="C"/><path d="M408.332 95.172c-.372 0-.72-.067-1.048-.2-.32-.133-.6-.33-.837-.588a2.75 2.75 0 0 1-.558-.953 3.81 3.81 0 0 1-.201-1.282c0-.478.074-.906.223-1.282s.35-.694.603-.953.543-.455.87-.588c.335-.14.684-.212 1.05-.212.357 0 .662.063.915.188a2.92 2.92 0 0 1 .691.459l-.624.882c-.15-.133-.298-.235-.447-.306-.14-.08-.297-.118-.468-.118-.447 0-.807.176-1.083.53-.275.345-.412.812-.412 1.4 0 .58.134 1.047.4 1.4.276.345.63.518 1.06.518.216 0 .417-.047.603-.14.193-.102.368-.22.524-.353l.525.894a2.69 2.69 0 0 1-.86.529 2.55 2.55 0 0 1-.926.177z" class="C"/><path d="M411.2 95.03v-8.306h1.26v5.19h.033l2.03-2.66h1.406l-1.875 2.353 2.064 3.424h-1.394l-1.406-2.506-.86 1.035v1.47h-1.26z" class="C"/><path d="M415.952 92.56v-.988h2.656v.988h-2.656z" class="C"/><path d="M422.84 95.172c-.476 0-.91-.1-1.305-.27-.394-.188-.733-.455-1.015-.8-.283-.353-.503-.776-.66-1.27s-.234-1.055-.234-1.682c0-.62.078-1.173.234-1.66.156-.494.376-.9.66-1.247s.62-.596 1.015-.776.83-.27 1.305-.27.91.1 1.306.27a2.87 2.87 0 0 1 1.015.776c.3.337.513.753.67 1.247.157.486.235 1.04.235 1.66 0 .627-.078 1.188-.235 1.682a3.76 3.76 0 0 1-.669 1.271c-.283.345-.62.612-1.015.8-.395.18-.83.27-1.306.27zm0-1.188a1.53 1.53 0 0 0 .781-.2c.23-.133.428-.322.592-.565.163-.25.3-.55.38-.894.09-.353.134-.745.134-1.177 0-.863-.17-1.537-.513-2.024-.335-.494-.793-.74-1.373-.74s-1.04.247-1.383.74c-.335.486-.502 1.16-.502 2.024 0 .43.044.824.134 1.177.09.345.215.643.38.894.164.243.36.43.59.565s.49.2.78.2z" class="C"/><path d="M429.04 95.172c-.588 0-1.015-.196-1.283-.588-.268-.4-.402-.97-.402-1.706v-3.624h1.283V92.7c0 .478.067.816.2 1.012s.35.294.647.294a1.06 1.06 0 0 0 .625-.188c.186-.126.383-.33.59-.612v-3.953h1.283v5.777h-1.048l-.1-.847h-.033a3.24 3.24 0 0 1-.781.718c-.276.18-.603.27-.982.27z" class="C"/><path d="M435.542 95.172c-.32 0-.592-.05-.815-.153-.215-.102-.394-.243-.535-.424-.134-.188-.235-.408-.3-.66-.06-.26-.1-.545-.1-.86v-2.753h-.78v-1.012l.848-.06.156-1.577h1.072v1.577h1.394v1.07h-1.394v2.753c0 .674.256 1.012.77 1.012a1.22 1.22 0 0 0 .29-.035c.105-.023.198-.055.28-.094l.224 1c-.15.055-.32.102-.514.14-.186.047-.386.07-.602.07z" class="C"/></g></g><defs><filter id="A" x="-3" y="-16" width="507" height="355" filterUnits="userSpaceOnUse" color-interpolation-filters="sRGB"><feFlood flood-opacity="0" result="A"/><feColorMatrix in="SourceAlpha" values="0 0 0 0 0 0 0 0 0 0 0 0 0 0 0 0 0 0 127 0"/><feOffset dx="-7" dy="4"/><feGaussianBlur stdDeviation="24.5"/><feColorMatrix values="0 0 0 0 0 0 0 0 0 0 0 0 0 0 0 0 0 0 0.09 0"/><feBlend in2="A"/><feBlend in="SourceGraphic"/></filter><clipPath id="B"><path d="M0 0h515v320H0z" class="E"/></clipPath><path id="C" d="M232.98 213.23c1.328 0 1.878-.94 1.878-2.096v-4.735h-.872v4.653c0 1.023-.363 1.432-1.09 1.432-.488 0-.872-.225-1.173-.757l-.623.43c.395.706 1.017 1.074 1.88 1.074z"/><path id="D" d="M271.466 213.23c1.317 0 2.116-1.217 2.116-3.405s-.8-3.365-2.116-3.365c-1.33 0-2.128 1.176-2.128 3.365s.8 3.405 2.128 3.405zm0-.675c-.78 0-1.298-.818-1.298-2.73s.52-2.7 1.298-2.7c.767 0 1.286.777 1.286 2.7s-.52 2.73-1.286 2.73z"/><path id="E" d="M281.78 213.23c1.318 0 2.117-1.217 2.117-3.405s-.8-3.365-2.117-3.365c-1.328 0-2.127 1.176-2.127 3.365s.8 3.405 2.127 3.405zm0-.675c-.778 0-1.297-.818-1.297-2.73s.52-2.7 1.297-2.7c.768 0 1.287.777 1.287 2.7s-.52 2.73-1.287 2.73z"/><path id="F" d="M393.012 213.31h3.908v-1.002h-1.275v-5.78h-.878c-.408.256-.857.426-1.5.554v.768h1.194v4.46h-1.45v1.002z"/><path id="G" d="M89.606 221.18a11.97 11.97 0 0 0 11.967-11.968 11.97 11.97 0 0 0-11.967-11.967 11.97 11.97 0 0 0-11.967 11.967 11.97 11.97 0 0 0 11.967 11.968z"/><path id="H" d="M264.14 170.165h4.275v-.726h-1.92c-.342 0-.747.03-1.1.06 1.567-1.616 2.698-2.833 2.698-4.06 0-1.156-.757-1.923-1.982-1.923-.86 0-1.453.4-2.003.992l.488.48c.384-.44.86-.787 1.41-.787.84 0 1.256.53 1.256 1.278 0 1.053-1.12 2.23-3.113 4.183v.5z"/><path id="I" d="M274.455 170.165h4.275v-.726h-1.92c-.342 0-.747.03-1.1.06 1.567-1.616 2.698-2.833 2.698-4.06 0-1.156-.758-1.923-1.982-1.923-.86 0-1.453.4-2.003.992l.488.48c.384-.44.86-.787 1.41-.787.84 0 1.256.53 1.256 1.278 0 1.053-1.12 2.23-3.113 4.183v.5z"/><path id="J" d="M89.606 178.24a11.97 11.97 0 0 0 11.967-11.967 11.97 11.97 0 0 0-11.967-11.967 11.97 11.97 0 0 0-11.967 11.967 11.97 11.97 0 0 0 11.967 11.967z"/><path id="K" d="M334.653 126.146c1.333 0 2.182-1.258 2.182-3.552 0-2.282-.85-3.487-2.182-3.487s-2.18 1.194-2.18 3.487.848 3.552 2.18 3.552zm0-.96c-.616 0-1.07-.672-1.07-2.592s.454-2.527 1.07-2.527c.626 0 1.07.608 1.07 2.527s-.445 2.592-1.07 2.592z"/><path id="L" d="M334.706 256.38c1.366 0 2.235-1.26 2.235-3.552 0-2.283-.87-3.488-2.235-3.488s-2.234 1.195-2.234 3.488.87 3.552 2.234 3.552zm0-.96c-.63 0-1.096-.672-1.096-2.592s.465-2.528 1.096-2.528c.642 0 1.097.608 1.097 2.528s-.455 2.592-1.097 2.592z"/></defs></svg>