<svg width="245" height="91" viewBox="0 0 245 91" fill="none" xmlns="http://www.w3.org/2000/svg">
<rect width="90.5793" height="91" rx="16" fill="#6C75F1"/>
<path fill-rule="evenodd" clip-rule="evenodd" d="M141.189 59.605C139.551 59.605 138.424 58.7821 137.861 56.8275L133.56 42.9916H133.458L129.209 56.8275C128.594 58.7821 127.519 59.605 125.932 59.605C124.345 59.605 123.27 58.7821 122.604 56.8275L116.461 38.2596C116.307 37.8481 116.256 37.4366 116.256 37.0766C116.256 35.4821 117.433 34.2991 119.072 34.2991C120.454 34.2991 121.376 35.1221 121.836 36.7165L126.188 51.4269H126.29L130.54 36.8708C131.052 35.1221 132.025 34.2991 133.509 34.2991C134.943 34.2991 135.864 35.1221 136.427 36.8708L141.035 51.4269H141.138L145.233 36.7165C145.694 35.1221 146.616 34.2991 147.998 34.2991C149.636 34.2991 150.814 35.4821 150.814 37.0766C150.814 37.4366 150.711 37.8995 150.609 38.2596L144.465 56.8275C143.851 58.7821 142.776 59.605 141.189 59.605ZM176.856 55.2331C177.163 55.7989 177.317 56.3647 177.317 56.9304C177.317 58.4735 176.088 59.6051 174.45 59.6051C173.426 59.6051 172.607 59.245 172.043 58.4221L171.224 57.1876H171.173C169.74 58.885 167.231 59.9137 163.903 59.9137C158.067 59.9137 154.944 57.1362 154.944 52.4042C154.944 47.055 158.681 44.4832 164.774 44.4832H169.842C170.047 44.4832 170.149 44.3804 170.149 44.1746V43.5574C170.149 40.677 168.511 38.9797 164.62 38.9797C162.879 38.9797 161.19 39.494 160.115 40.0084C159.603 40.2141 159.091 40.317 158.63 40.317C157.248 40.317 156.275 39.3912 156.275 37.951C156.275 37.128 156.684 36.2022 157.708 35.6879C159.295 34.762 161.855 33.9905 165.234 33.9905C172.248 33.9905 175.576 37.4881 175.576 43.6088V51.4269C175.576 52.7128 175.73 53.2271 176.088 53.8958L176.856 55.2331ZM164.722 55.233C168.05 55.233 170.149 53.9472 170.149 51.324V49.1123C170.149 48.9065 170.047 48.8037 169.842 48.8037H165.746C161.958 48.8037 160.422 49.8838 160.422 52.1469C160.422 54.2043 161.906 55.233 164.722 55.233ZM189.485 59.6564H189.075C184.058 59.6564 182.317 57.1361 182.317 52.4041V27.1496C182.317 25.2466 183.495 24.115 185.184 24.115C186.822 24.115 188.051 25.2466 188.051 27.1496V51.9412C188.051 53.69 188.614 54.3072 190.048 54.5129C191.737 54.7187 192.454 55.7474 192.454 57.0333C192.454 58.5249 191.532 59.6564 189.485 59.6564ZM214.452 24.115C216.141 24.115 217.319 25.2466 217.319 27.1496V56.5703C217.319 58.4734 216.141 59.605 214.452 59.605C212.762 59.605 211.841 58.5763 211.585 56.9818H211.533C210.356 58.6792 208.359 59.9136 204.878 59.9136C200.782 59.9136 197.71 57.5476 196.43 53.6386C195.816 51.7355 195.56 49.7295 195.56 46.952C195.56 44.1746 195.816 42.1686 196.43 40.2655C197.71 36.3565 200.782 33.9905 204.878 33.9905C208.359 33.9905 210.458 35.3278 211.533 36.9223H211.585V27.1496C211.585 25.2466 212.762 24.115 214.452 24.115ZM206.465 39.134C204.315 39.134 202.676 40.0598 201.908 42.4258C201.55 43.506 201.396 44.9976 201.396 46.9521C201.396 48.9066 201.55 50.3982 201.908 51.4783C202.676 53.8443 204.315 54.7702 206.465 54.7702C208.666 54.7702 210.305 53.8443 211.073 51.4783C211.431 50.3982 211.585 48.9066 211.585 46.9521C211.585 44.9976 211.431 43.506 211.073 42.4258C210.305 40.0598 208.666 39.134 206.465 39.134ZM234.043 59.9137C229.026 59.9137 225.237 57.3934 223.855 53.0728C223.292 51.324 223.036 49.6781 223.036 46.9521C223.036 44.226 223.292 42.5801 223.855 40.8314C225.237 36.5108 229.026 33.9905 234.043 33.9905C239.009 33.9905 242.798 36.5108 244.18 40.8314C244.743 42.5801 244.999 44.226 244.999 46.9521C244.999 49.6781 244.743 51.324 244.18 53.0728C242.798 57.3934 239.009 59.9137 234.043 59.9137ZM234.043 54.7702C236.347 54.7702 237.934 53.5872 238.651 51.5298C239.06 50.2439 239.163 49.0609 239.163 46.9521C239.163 44.8433 239.06 43.7117 238.651 42.3744C237.934 40.317 236.347 39.134 234.043 39.134C231.739 39.134 230.101 40.317 229.384 42.3744C228.975 43.7117 228.872 44.8433 228.872 46.9521C228.872 49.0609 228.975 50.2439 229.384 51.5298C230.101 53.5872 231.739 54.7702 234.043 54.7702Z" fill="#535863"/>
<path fill-rule="evenodd" clip-rule="evenodd" d="M54.627 21.7672C56.1824 21.5908 57.7408 21.6042 59.303 21.8073C61.4511 22.2898 63.7536 23.1793 65.721 24.3925C66.0874 24.6185 66.6365 24.8581 67.2162 25.1111C68.2151 25.5469 69.305 26.0225 69.7085 26.5367C71.2856 28.5464 69.3924 31.598 67.095 31.598C66.5464 31.598 66.1308 31.548 65.3284 31.4123C65.1484 31.3818 65.0667 31.3681 64.9716 31.3527C63.6089 31.1326 62.7514 31.2016 61.4797 31.796C61.1013 31.9729 61.5259 35.3666 62.0785 39.7829L62.0785 39.783C62.6939 44.7019 63.4681 50.8894 63.4681 55.3133C63.4681 62.1699 61.2859 78.0257 59.5746 78.0257C58.3113 78.0257 57.2311 70.2129 56.6691 66.1486C56.55 65.2871 56.4542 64.5941 56.3849 64.1795L56.3934 64.1793C56.3909 64.1786 56.388 64.1781 56.3846 64.1777C56.338 63.8998 56.3034 63.7476 56.2818 63.7545C56.2646 63.7825 56.188 64.2943 56.065 65.1165L56.0649 65.1169L56.0649 65.1169V65.117L56.0649 65.1171L56.0649 65.1172C55.4976 68.9087 53.9431 79.2977 52.6695 79.2977C51.3742 79.2977 50.2133 68.5588 49.8213 64.9328L49.8213 64.9326L49.8213 64.9321L49.8212 64.9313C49.7442 64.2195 49.6969 63.7821 49.6841 63.7545C49.6422 63.7549 49.4761 63.7825 49.2085 63.8269C46.9141 64.2076 37.1594 65.8264 34.238 62.1699C34.2148 62.2111 34.079 62.8313 33.8641 63.8135L33.8641 63.8137L33.864 63.8138C32.9252 68.104 30.4755 79.2977 29.292 79.2977C27.3983 79.2977 25.3472 63.1527 25.9642 56.179C25.9807 55.9995 25.9983 55.8271 26.017 55.6615C26.0483 55.3927 26.0843 55.1409 26.1252 54.9076L26.1133 54.9178C26.3228 53.4988 26.5982 52.6953 26.7528 52.2443C26.8668 51.9116 26.9151 51.7707 26.8228 51.716C26.6228 51.5974 25.4984 53.5045 24.5812 56.1267C24.2574 56.3486 23.9472 56.5338 23.6441 56.6818C22.8866 57.0516 22.2046 57.1714 21.605 56.9663C20.4668 56.5769 20.0722 55.6287 20.4008 54.4238C20.6734 53.4244 21.4372 52.2547 22.4952 51.1659C24.6223 48.9769 26.9779 47.6235 30.974 46.9982C35.2875 46.3232 41.6235 46.5536 49.9937 47.6848L52.0129 24.1669C51.5204 21.0575 50.5719 14.459 51.0412 12.4389C51.6391 9.86583 54.4166 13.7252 54.627 21.7672ZM56.3846 64.1777L56.3849 64.1795L56.3841 64.1795C56.3802 64.1784 56.3765 64.1776 56.373 64.1772L56.3697 64.1769L56.3775 64.1771L56.3846 64.1777ZM59.3008 13.5067C59.4151 14.788 58.6215 18.0024 57.8721 20.6732C56.9754 20.6255 56.0795 20.6375 55.1846 20.7091C56.3599 14.103 59.1016 11.2739 59.3008 13.5067ZM34.5742 64.1954C34.5742 64.1954 36.1536 77.9798 37.1961 77.9798C37.9873 77.9798 38.701 70.8743 39.0506 67.3928L39.0507 67.3926L39.0507 67.3919L39.0508 67.3914C39.1359 66.5438 39.1995 65.9111 39.2373 65.6484C36.2675 65.6484 34.5742 64.1954 34.5742 64.1954Z" fill="white"/>
</svg>
