<svg width="116" height="43" viewBox="0 0 116 43" fill="none" xmlns="http://www.w3.org/2000/svg">
<rect width="42.8865" height="42.8865" rx="8" fill="#6C75F1"/>
<path fill-rule="evenodd" clip-rule="evenodd" d="M66.848 28.0908C66.0723 28.0908 65.539 27.7029 65.2723 26.7818L63.2362 20.2612H63.1877L61.1757 26.7818C60.8849 27.7029 60.3758 28.0908 59.6244 28.0908C58.8729 28.0908 58.3639 27.7029 58.0488 26.7818L55.1399 18.0311C55.0672 17.8371 55.043 17.6432 55.043 17.4735C55.043 16.7221 55.6005 16.1646 56.3762 16.1646C57.0307 16.1646 57.467 16.5524 57.6852 17.3039L59.7456 24.2366H59.7941L61.806 17.3766C62.0484 16.5524 62.509 16.1646 63.2119 16.1646C63.8906 16.1646 64.327 16.5524 64.5936 17.3766L66.7752 24.2366H66.8237L68.7629 17.3039C68.9811 16.5524 69.4174 16.1646 70.0719 16.1646C70.8476 16.1646 71.4051 16.7221 71.4051 17.4735C71.4051 17.6432 71.3566 17.8614 71.3082 18.0311L68.3993 26.7818C68.1084 27.7029 67.5994 28.0908 66.848 28.0908ZM83.7353 26.0303C83.8807 26.297 83.9535 26.5636 83.9535 26.8303C83.9535 27.5575 83.3717 28.0908 82.596 28.0908C82.1112 28.0908 81.7234 27.9211 81.4567 27.5332L81.0689 26.9515H81.0446C80.3659 27.7514 79.1781 28.2362 77.6025 28.2362C74.8391 28.2362 73.3605 26.9272 73.3605 24.6971C73.3605 22.1762 75.13 20.9641 78.0146 20.9641H80.4144C80.5113 20.9641 80.5598 20.9157 80.5598 20.8187V20.5278C80.5598 19.1704 79.7841 18.3704 77.9419 18.3704C77.1177 18.3704 76.3178 18.6128 75.8087 18.8552C75.5663 18.9522 75.3239 19.0007 75.1058 19.0007C74.4513 19.0007 73.9907 18.5644 73.9907 17.8856C73.9907 17.4978 74.1846 17.0615 74.6694 16.8191C75.4209 16.3827 76.6329 16.0191 78.2328 16.0191C81.5537 16.0191 83.1293 17.6675 83.1293 20.5521V24.2366C83.1293 24.8426 83.202 25.085 83.3717 25.4001L83.7353 26.0303ZM77.9904 26.0303C79.566 26.0303 80.5598 25.4243 80.5598 24.1881V23.1457C80.5598 23.0488 80.5113 23.0003 80.4144 23.0003H78.4752C76.6814 23.0003 75.9542 23.5093 75.9542 24.5759C75.9542 25.5455 76.6571 26.0303 77.9904 26.0303ZM89.7145 28.115H89.5206C87.1451 28.115 86.3209 26.9272 86.3209 24.6971V12.7952C86.3209 11.8983 86.8784 11.365 87.6783 11.365C88.454 11.365 89.0358 11.8983 89.0358 12.7952V24.4789C89.0358 25.3031 89.3024 25.594 89.9812 25.691C90.7811 25.7879 91.1205 26.2727 91.1205 26.8787C91.1205 27.5817 90.6841 28.115 89.7145 28.115ZM101.536 11.365C102.336 11.365 102.893 11.8983 102.893 12.7952V26.6606C102.893 27.5575 102.336 28.0907 101.536 28.0907C100.736 28.0907 100.299 27.6059 100.178 26.8545H100.154C99.5965 27.6544 98.6511 28.2362 97.0028 28.2362C95.0635 28.2362 93.6091 27.1211 93.0031 25.2789C92.7122 24.382 92.591 23.4366 92.591 22.1276C92.591 20.8187 92.7122 19.8733 93.0031 18.9764C93.6091 17.1342 95.0635 16.0191 97.0028 16.0191C98.6511 16.0191 99.645 16.6494 100.154 17.4008H100.178V12.7952C100.178 11.8983 100.736 11.365 101.536 11.365ZM97.7542 18.4432C96.7361 18.4432 95.9604 18.8795 95.5968 19.9945C95.4272 20.5036 95.3544 21.2065 95.3544 22.1277C95.3544 23.0488 95.4272 23.7518 95.5968 24.2608C95.9604 25.3759 96.7361 25.8122 97.7542 25.8122C98.7965 25.8122 99.5722 25.3759 99.9358 24.2608C100.106 23.7518 100.178 23.0488 100.178 22.1277C100.178 21.2065 100.106 20.5036 99.9358 19.9945C99.5722 18.8795 98.7965 18.4432 97.7542 18.4432ZM110.812 28.2362C108.436 28.2362 106.642 27.0484 105.988 25.0123C105.721 24.1881 105.6 23.4124 105.6 22.1277C105.6 20.8429 105.721 20.0673 105.988 19.2431C106.642 17.2069 108.436 16.0191 110.812 16.0191C113.163 16.0191 114.957 17.2069 115.611 19.2431C115.878 20.0673 115.999 20.8429 115.999 22.1277C115.999 23.4124 115.878 24.1881 115.611 25.0123C114.957 27.0484 113.163 28.2362 110.812 28.2362ZM110.812 25.8122C111.902 25.8122 112.654 25.2547 112.993 24.285C113.187 23.679 113.236 23.1215 113.236 22.1277C113.236 21.1338 113.187 20.6005 112.993 19.9703C112.654 19.0007 111.902 18.4432 110.812 18.4432C109.721 18.4432 108.945 19.0007 108.606 19.9703C108.412 20.6005 108.363 21.1338 108.363 22.1277C108.363 23.1215 108.412 23.679 108.606 24.285C108.945 25.2547 109.721 25.8122 110.812 25.8122Z" fill="#535863"/>
<path fill-rule="evenodd" clip-rule="evenodd" d="M25.8654 10.2585C26.6018 10.1754 27.3397 10.1817 28.0793 10.2774C29.0964 10.5048 30.1866 10.924 31.118 11.4958C31.2915 11.6023 31.5515 11.7152 31.826 11.8344C32.2989 12.0398 32.815 12.2639 33.006 12.5063C33.7527 13.4534 32.8563 14.8916 31.7686 14.8916C31.5088 14.8916 31.3121 14.868 30.9321 14.804C30.8469 14.7897 30.8083 14.7832 30.7632 14.776C30.118 14.6723 29.712 14.7048 29.1099 14.9849C28.9308 15.0683 29.1318 16.6677 29.3934 18.749C29.6848 21.0672 30.0514 23.9832 30.0514 26.0681C30.0514 29.2995 29.0182 36.7721 28.2079 36.7721C27.6098 36.7721 27.0983 33.0901 26.8323 31.1746L26.8323 31.1746L26.8323 31.1746L26.8322 31.1742C26.7758 30.7684 26.7305 30.4419 26.6977 30.2466L26.7017 30.2465L26.6998 30.2461L26.6975 30.2457C26.6755 30.1148 26.6591 30.0431 26.6489 30.0463C26.6407 30.0595 26.6045 30.3007 26.5462 30.6882L26.5462 30.6884C26.2776 32.4751 25.5416 37.3715 24.9386 37.3715C24.3253 37.3715 23.7756 32.3105 23.59 30.6016L23.59 30.6015C23.5536 30.2657 23.5312 30.0593 23.5251 30.0463C23.5053 30.0465 23.4269 30.0594 23.3007 30.0803L23.3006 30.0803L23.3004 30.0803L23.3004 30.0803L23.2999 30.0804L23.2999 30.0804C22.2136 30.2599 17.595 31.0228 16.2118 29.2995C16.2008 29.3189 16.1365 29.6113 16.0348 30.0743C15.5902 32.0961 14.4304 37.3715 13.87 37.3715C12.9734 37.3715 12.0023 29.7624 12.2945 26.4759C12.3022 26.3914 12.3106 26.3103 12.3194 26.2324C12.3342 26.1057 12.3513 25.9869 12.3706 25.877L12.365 25.8817C12.4642 25.213 12.5946 24.8343 12.6678 24.6218C12.7218 24.465 12.7446 24.3986 12.7009 24.3728C12.6063 24.3169 12.0739 25.2157 11.6396 26.4515C11.4863 26.5561 11.3394 26.6433 11.1959 26.7131C10.8373 26.8874 10.5144 26.9438 10.2305 26.8471C9.69158 26.6637 9.50474 26.2168 9.66033 25.649C9.78941 25.1779 10.151 24.6267 10.652 24.1136C11.6591 23.0819 12.7744 22.4441 14.6664 22.1494C16.7087 21.8313 19.7086 21.9399 23.6716 22.473L24.6277 11.3894C24.3945 9.92406 23.9454 6.8143 24.1676 5.86228C24.4507 4.64962 25.7658 6.46848 25.8654 10.2585ZM26.6975 30.2457L26.6977 30.2466L26.6973 30.2466C26.6956 30.2461 26.6939 30.2458 26.6923 30.2456L26.6893 30.2454L26.6952 30.2455L26.6975 30.2457ZM28.0783 6.36551C28.1324 6.96934 27.7566 8.48425 27.4018 9.74292C26.9773 9.72045 26.5531 9.72609 26.1294 9.75986C26.6859 6.64651 27.984 5.31324 28.0783 6.36551ZM16.371 30.2541C16.371 30.2541 17.1188 36.7504 17.6124 36.7504C17.987 36.7504 18.3249 33.4018 18.4905 31.761L18.4905 31.761L18.4905 31.7609C18.5308 31.3611 18.5609 31.0627 18.5788 30.9389C17.1727 30.9389 16.371 30.2541 16.371 30.2541Z" fill="white"/>
</svg>
